<svg xmlns="http://www.w3.org/2000/svg" width="87.537" height="87.54" viewBox="0 0 87.537 87.54">
  <path id="Path_1736" data-name="Path 1736" d="M87.266,38.91a2.85,2.85,0,0,0-2.814-2.155,9.665,9.665,0,0,1-6.616-16.821,2.431,2.431,0,0,0,.266-3.3,43.312,43.312,0,0,0-6.934-7,2.436,2.436,0,0,0-3.326.269,10.088,10.088,0,0,1-10.917,2.452,9.722,9.722,0,0,1-5.912-9.5A2.428,2.428,0,0,0,48.866.292,43.7,43.7,0,0,0,39.019.266a2.436,2.436,0,0,0-2.167,2.5,9.739,9.739,0,0,1-5.993,9.339A10.116,10.116,0,0,1,20.023,9.642a2.441,2.441,0,0,0-3.3-.278,43.475,43.475,0,0,0-7.081,7A2.435,2.435,0,0,0,9.9,19.691a9.7,9.7,0,0,1,2.447,10.921,10.119,10.119,0,0,1-9.524,5.917A2.379,2.379,0,0,0,.3,38.678a43.847,43.847,0,0,0-.019,9.954,2.9,2.9,0,0,0,2.87,2.152,9.6,9.6,0,0,1,9.006,6A9.733,9.733,0,0,1,9.705,67.605a2.433,2.433,0,0,0-.266,3.3,43.469,43.469,0,0,0,6.924,7.005,2.434,2.434,0,0,0,3.331-.264,10.073,10.073,0,0,1,10.912-2.455,9.707,9.707,0,0,1,5.922,9.5,2.431,2.431,0,0,0,2.148,2.557,43.564,43.564,0,0,0,9.847.026,2.436,2.436,0,0,0,2.167-2.507,9.728,9.728,0,0,1,5.989-9.334A10.1,10.1,0,0,1,67.519,77.9a2.446,2.446,0,0,0,3.3.276,43.574,43.574,0,0,0,7.081-7,2.43,2.43,0,0,0-.262-3.326A9.7,9.7,0,0,1,75.19,56.929,9.8,9.8,0,0,1,84.144,51l.541.014a2.436,2.436,0,0,0,2.562-2.146A43.81,43.81,0,0,0,87.266,38.91ZM43.841,58.462a14.6,14.6,0,1,1,14.6-14.6A14.615,14.615,0,0,1,43.841,58.462Z" transform="translate(-0.003)" fill="#2d002b" fill-rule="evenodd"/>
</svg>
