<svg xmlns="http://www.w3.org/2000/svg" width="113.442" height="149.634" viewBox="0 0 113.442 149.634">
  <g id="noun_Arrow_2553093" transform="translate(-18.307 -53.59)">
    <g id="Group_4174" data-name="Group 4174" transform="translate(18.306 53.59)">
      <path id="Path_1630" data-name="Path 1630" d="M162.219,81.56a1.848,1.848,0,0,1-.987-2.231L167.6,59.066a4.219,4.219,0,0,0-2.045-4.988,4.262,4.262,0,0,0-3.767-.1L106.249,79.976a6.419,6.419,0,0,0-3.093,8.535l25.98,55.507a4.265,4.265,0,0,0,7.788-.138l8.218-19.307a1.848,1.848,0,0,1,2.462-.96c20.126,9.1,44.133,26.667,51.156,48.685a40.1,40.1,0,0,1-2.5,30.926c15.621-16.135,22.3-36.35,18.834-57.263C210.678,119.3,190.417,94.623,162.219,81.56Z" transform="translate(-102.547 -53.59)" fill="#2d002b"/>
    </g>
  </g>
</svg>
