<svg id="noun_Email_539051" xmlns="http://www.w3.org/2000/svg" width="102" height="102" viewBox="0 0 102 102">
  <g id="Group_416" data-name="Group 416">
    <path id="Path_254" data-name="Path 254" d="M51,76.5A25.5,25.5,0,1,1,76.5,51,25.526,25.526,0,0,1,51,76.5Zm0-38.25A12.75,12.75,0,1,0,63.75,51,12.763,12.763,0,0,0,51,38.25ZM51,102A50.962,50.962,0,1,1,100.96,61.276,19.191,19.191,0,0,1,78.3,76.226,19.122,19.122,0,0,1,63.482,53.6a6.372,6.372,0,1,1,12.476,2.6A6.392,6.392,0,0,0,80.9,63.75a6.43,6.43,0,0,0,7.548-4.941,38.194,38.194,0,1,0-24.289,28.12,6.375,6.375,0,0,1,4.367,11.979A50.867,50.867,0,0,1,51,102Z" fill="#2d002b"/>
  </g>
</svg>
