<svg id="noun_FAQ_1824078" xmlns="http://www.w3.org/2000/svg" width="69.151" height="69.152" viewBox="0 0 69.151 69.152">
  <g id="Layer_8" data-name="Layer 8" transform="translate(0 0)">
    <path id="Path_327" data-name="Path 327" d="M79.166,42.778a34.718,34.718,0,1,0-10.13,26.178A34.58,34.58,0,0,0,79.166,42.778Zm-29.522,22a5.187,5.187,0,1,1-1.38-4.862A5.187,5.187,0,0,1,49.644,64.779Zm-1.6-15.405v1.988a3.553,3.553,0,0,1-2.74,3.518,3.458,3.458,0,0,1-4.175-3.389V48.1a3.458,3.458,0,0,1,3.458-3.458l1.435-.069a8.807,8.807,0,1,0-7.945-14.947,2.706,2.706,0,0,1-3.354.45,2.593,2.593,0,0,1-.415-4.011,14.009,14.009,0,1,1,13.78,23.35Z" transform="translate(-10.053 -9.973)" fill="#2d002b"/>
  </g>
</svg>
