<svg xmlns="http://www.w3.org/2000/svg" width="262.563" height="336.082" viewBox="0 0 262.563 336.082">
  <g id="Group_4233" data-name="Group 4233" transform="translate(-12325.719 -6519.959)">
    <g id="noun_report_362639" transform="translate(12325.719 6519.959)">
      <g id="Group_4181" data-name="Group 4181" transform="translate(0)">
        <path id="Path_1689" data-name="Path 1689" d="M3.5,0V336.081H266.063V52.513L218.8,0ZM219.022,15.943l33.5,37.221h-33.5ZM14,325.579V10.5H208.519V63.666H255.56V325.579Z" transform="translate(-3.5)" fill="#ce6d0d"/>
        <rect id="Rectangle_1747" data-name="Rectangle 1747" width="157.537" height="10.503" transform="translate(52.512 230.667)" fill="#ce6d0d"/>
        <rect id="Rectangle_1748" data-name="Rectangle 1748" width="157.537" height="10.503" transform="translate(52.512 257.512)" fill="#ce6d0d"/>
        <rect id="Rectangle_1749" data-name="Rectangle 1749" width="157.537" height="10.503" transform="translate(52.512 284.346)" fill="#ce6d0d"/>
      </g>
    </g>
    <g id="noun_Heart_2597203" transform="translate(12402.443 6616.619)">
      <path id="Path_1707" data-name="Path 1707" d="M64.655,111.579a6.362,6.362,0,0,1-4.239-1.641c-4.375-3.828-8.614-7.52-12.442-10.665h0c-10.938-9.434-20.51-17.5-27.073-25.432-7.383-8.887-10.8-17.365-10.8-26.526,0-9.024,3.008-17.228,8.614-23.244A29.273,29.273,0,0,1,40.591,14.5a27.838,27.838,0,0,1,17.091,5.879,35.183,35.183,0,0,1,6.973,7.247,35.184,35.184,0,0,1,6.973-7.247A27.018,27.018,0,0,1,88.72,14.5,29.491,29.491,0,0,1,110.6,24.071c5.606,6.016,8.614,14.357,8.614,23.244,0,9.3-3.418,17.638-10.8,26.526-6.563,7.93-16.134,16-27.073,25.432-3.692,3.145-8.067,6.837-12.442,10.665A6.362,6.362,0,0,1,64.655,111.579Z" transform="translate(-10.1 -14.5)" fill="#ce6d0d"/>
    </g>
  </g>
</svg>
