<svg xmlns="http://www.w3.org/2000/svg" width="121.54" height="109.708" viewBox="0 0 121.54 109.708">
  <g id="noun_Home_1059963" transform="translate(0 -5)">
    <g id="Group_4204" data-name="Group 4204" transform="translate(0 5)">
      <g id="Group_4203" data-name="Group 4203" transform="translate(0)">
        <path id="Path_1704" data-name="Path 1704" d="M120.748,57.959,62.361,5.609a2.383,2.383,0,0,0-3.182,0L.792,57.959a2.383,2.383,0,0,0,1.591,4.158H15.108v50.206a2.384,2.384,0,0,0,2.383,2.384H46.614A2.384,2.384,0,0,0,49,112.324V75.9H72.543v36.427a2.383,2.383,0,0,0,2.384,2.384h29.122a2.383,2.383,0,0,0,2.384-2.384V62.117h12.725a2.383,2.383,0,0,0,1.591-4.158" transform="translate(0 -5)" fill="#1c001b" fill-rule="evenodd"/>
      </g>
    </g>
  </g>
</svg>
