<svg xmlns="http://www.w3.org/2000/svg" width="261.812" height="198.222" viewBox="0 0 261.812 198.222">
  <g id="Logo_Splash" data-name="Logo Splash" transform="translate(45.998)">
    <path id="Path_1643" data-name="Path 1643" d="M130.522,252.711,118.69,263.557l23.4,16.02c1.929,1.284,2.972,2.217,4.9,3.5,1.789,1.192,2.894,1.952,4.56,3.2,6.349,4.738,3.869,4.282,18.192-5.267l39.418-26.5c0-13.071.647-24.2.647-36.833V180.2c-6.383,4.273-11.088,10.4-17,15.2a42.653,42.653,0,0,1-62.278,57.31Z" transform="translate(-72.848 -161.56)" fill="#fff" fill-rule="evenodd"/>
    <path id="Path_1644" data-name="Path 1644" d="M0,14.773V91.024A25.721,25.721,0,0,0,4.025,87.3l9.666-8.485a42.657,42.657,0,0,1,60.5-55.82,18.731,18.731,0,0,1,1.685-1.484A37.457,37.457,0,0,0,80.609,17.2c3.065-3.113,6.876-5.4,9.212-8.883C67.645-3.422,32.69-2.271,10.335,8.956,6.551,10.857,3.572,12.884,0,14.774Z" transform="translate(33.564 -0.011)" fill="#fff" fill-rule="evenodd"/>
    <path id="Path_1645" data-name="Path 1645" d="M324.191,440.591c.542.6,5.753,11.084,5.817,11.555l-11.517.01c.068-.722,4.968-10.161,5.7-11.565Zm-29.587.039a117.485,117.485,0,0,1,5.712,11.544l-11.524-.021c.109-.522,5.489-11.206,5.812-11.523Zm10.7,16.729c-.783.767.816,3.432-3,4.76-.851.3-.688-.364-.67,3.187h15.531c.006-3.545.19-2.9-.811-3.218-3.4-1.073-2.229-4.183-2.859-4.753-.606-.346-2.107-.139-2.95-.126.009-.191,1.988-21.1,2.482-21.977,1.726.489,3.309,1.883,4.867,2.672,2.277,1.154,3.288.938,5.9,1.337-.81,2.026-4.427,8.805-5.887,11.78-.667,1.36-.42.811-1.05,1.383,1.124,4.442,13.671,4.37,14.758,0l-.381-.313c-.636-.6-4.336-8.415-4.928-9.579a31.807,31.807,0,0,1-1.617-3.294c2.7-1.9.753-3.683-.658-3.549-1.685.16-.552,2.695-7.325-1.477a13.069,13.069,0,0,0-14.616.006c-6.853,4.19-5.587,1.6-7.333,1.461-1.421-.115-3.336,1.733-.632,3.559a69.32,69.32,0,0,1-3.381,6.794c-.042.084-3.222,6.836-3.46,6.313-.013-.03-.066.047-.093.078,1.283,4.5,13.572,4.52,14.769,0-1.082-.929-1.02-1.361-1.958-3.2-.552-1.083-1.122-2.264-1.642-3.26l-3.331-6.768c6.527-.018,8.029-3.491,10.9-3.942l2.35,21.929c-.853.064-2.4-.2-2.979.2Z" transform="translate(-223.918 -387.279)" fill="#ce6d0d" fill-rule="evenodd"/>
    <path id="Path_1646" data-name="Path 1646" d="M197.438,296.116c-.172.7-1.22,2.6-1.621,3.572a30.585,30.585,0,0,0-1.259,3.775,29.7,29.7,0,0,0,2.393,21.282c.507.975,1.512,2.4,1.822,3.213l.414.414c.12.15.144.207.277.393a35.588,35.588,0,0,0,4.186,4.51l.7.751c-1.489-.783-2.22-1.485-4.387-1.62-1.119-.069-4.546-.1-5.317.37a19.719,19.719,0,0,0,5.852,4.835,4.977,4.977,0,0,0,4.3.024c1.844-1.149-.184-3.232-.359-3.572,1.4.829,2.578,1.859,4.173,2.8a41.213,41.213,0,0,0,9.732,3.824c1.537.452,3.982.929,5.148,1.649l-.5.257c-.041.018-.086.032-.127.049-.168.064-.344.112-.507.165-2.214.739-4.622,1.775-6.084,3.446.929.523,1.5.384,2.023,1.19,1.162-1.174.624-1.267,3.075-2.777a16.081,16.081,0,0,1,3.866-1.743,16.007,16.007,0,0,1,3.97,1.805c2.326,1.465,1.759,1.431,2.971,2.717.609-.853,1.09-.631,2.029-1.2-2.45-2.731-5.827-2.965-7.292-3.909.641-.388,8.395-2.571,10.405-3.322,5.024-1.877,5.356-2.961,8.723-4.947-.287.56-.242.331-.619.838a2.432,2.432,0,0,0-.426.933,1.6,1.6,0,0,0,.794,1.852c2.5,1.378,5.757-.712,7.5-2.3l2.543-2.611c-.755-.482-4.365-.448-5.489-.365-2.029.148-2.834.9-4.214,1.612.186-.289.052-.088.263-.321.034-.038.143-.146.178-.182l1.119-1.049a17.631,17.631,0,0,0,1.393-1.458l2.615-3.059a22.64,22.64,0,0,1,1.234-2.131,29.924,29.924,0,0,0,.692-28.463,37.5,37.5,0,0,0-4.6-6.777c-.567-.558-.429-.206-.722-.908,3.914,2.47,4.7-1.573,3.032-4.416a18.209,18.209,0,0,0-5.215-5.284c-.1,4.871-.419,5.945,1.96,9.465-1.032-.491-2.138-2.217-3.433-2.843a2.564,2.564,0,0,0-.747-2.947c-2.485-2.63-5.588-2.393-9.216-1.844.242.77,2.018,1.946,2.694,2.67,1.186,1.272,3.394,2.818,5.443,2.765,1.434-.036.957-.865,2.673.677a10.649,10.649,0,0,1,2.043,2.07c-1.261-.887-2.5-1.7-4.612-1.123a13.514,13.514,0,0,0-3.913,1.9,22.1,22.1,0,0,0,5.451,2.872c2.994.638,4.882-.825,3.148-3.564.556.3.418.295.826.775.234.275.405.4.649.68,2.4,2.806,6.164,9.24,6.3,12.463.993,1.726,1.041,6.817.879,9.054a28.822,28.822,0,0,1-5.37,14.922,22.454,22.454,0,0,1-4.939,5.23c.258-.6.295-.435.646-.987,1.5-2.339.066-6.034-1.1-7.317l-.954,1.249a17.335,17.335,0,0,0-2.231,3.958c-.586,2.154-.068,5.32,3.562,3.147l-1.01.924a29.92,29.92,0,0,1-8.227,4.494c-1.529.547-10.233,3.182-11.4,3.177-1.252-.005-9.861-2.632-11.4-3.173a30.414,30.414,0,0,1-5.027-2.341c-.359-.2-4.009-2.534-4.117-2.976-.016-.063-.061-.07-.088-.109.815.486,2.254,1.259,3.154.32.671-.7.718-2.314.407-3.465a20.215,20.215,0,0,0-3.189-5.2c-1.193,1.349-2.625,5.055-1.026,7.408.378.556.319.273.572.893a20.482,20.482,0,0,1-4.006-3.981,29.307,29.307,0,0,1-3.878-30.046A33.793,33.793,0,0,1,202.5,290.3c.343-.34.087-.166.488-.347.26-.643.767-.847,1.4-1.455,3.264-3.143,1.477-.057,5.6-1.763a10.85,10.85,0,0,0,3.117-2.246c.912-1,1.867-1.6,2.715-2.6-2.966-1.357-11.283.025-9.983,4.722A10.635,10.635,0,0,0,204.046,288a6.8,6.8,0,0,1-1.656,1.462c2.373-3.461,2.034-4.624,1.971-9.479a17.8,17.8,0,0,0-5.278,5.4c-1.639,3.022-.678,6.673,3.092,4.306-.3.715-.154.344-.723.91-1.2,1.191-3.453,4.9-4.018,5.521Z" transform="translate(-139.991 -251.019)" fill="#fff" fill-rule="evenodd"/>
    <path id="Path_1647" data-name="Path 1647" d="M165.628,708.634l-.833-.851c-2.208-2.213-4.968-2.8-8.186-3.2.74,2.473,4.547,8.533,8.247,7.616,2.084-.516,1.133-2.336.772-3.561Z" transform="translate(-106.846 -631.696)" fill="#fff" fill-rule="evenodd"/>
    <path id="Path_1648" data-name="Path 1648" d="M750.908,708.6c-.338,1.2-1.309,3.031.765,3.553,3.724.936,7.526-5.147,8.26-7.616-2.205.3-5.8,1.017-7.425,2.465Z" transform="translate(-639.198 -631.66)" fill="#fff" fill-rule="evenodd"/>
    <path id="Path_1649" data-name="Path 1649" d="M797.56,610.4a20.414,20.414,0,0,0-5.464,3.211c-.89.844-3.465,4.054-1.649,5.87.876.876,2.345.345,3.139-.191C796.035,617.629,797.218,613.419,797.56,610.4Z" transform="translate(-674.548 -547.259)" fill="#fff" fill-rule="evenodd"/>
    <path id="Path_1650" data-name="Path 1650" d="M141.731,619.479c1.87-1.793-.814-5.087-1.649-5.88a20.664,20.664,0,0,0-5.462-3.209,19.478,19.478,0,0,0,2.01,6.662c.564,1.084,3.249,4.2,5.1,2.427Z" transform="translate(-87.131 -547.25)" fill="#fff" fill-rule="evenodd"/>
    <path id="Path_1651" data-name="Path 1651" d="M137.787,514.07c-.236,2.73-.663,8.121,1.853,10.094,3.323,2.606,4.963-2.114,2.3-5.98-.283-.411-.6-.741-.892-1.118A7.322,7.322,0,0,0,139.933,516C139.229,515.336,138.694,514.249,137.787,514.07Z" transform="translate(-89.806 -460.893)" fill="#fff" fill-rule="evenodd"/>
    <path id="Path_1652" data-name="Path 1652" d="M799.959,422.711a23.688,23.688,0,0,0-2.915,5.337c-1.469,4.667,2.1,8.268,4.067,4.562,1.456-2.74.065-7.939-1.152-9.9Z" transform="translate(-680.721 -378.984)" fill="#fff" fill-rule="evenodd"/>
    <path id="Path_1653" data-name="Path 1653" d="M762.285,342.81a19.764,19.764,0,0,0-1.4,6.731c.664,7.178,7.324,5.343,4.567-1.564A18.771,18.771,0,0,0,762.285,342.81Z" transform="translate(-648.601 -307.349)" fill="#fff" fill-rule="evenodd"/>
    <path id="Path_1654" data-name="Path 1654" d="M812.482,514.03c-.762.157-3.522,3.252-4.082,4.025-.979,1.351-2.175,4.773-.711,6.331,1.061,1.127,3.575.165,4.463-2.739.79-2.587.546-4.923.329-7.617Z" transform="translate(-689.961 -460.858)" fill="#fff" fill-rule="evenodd"/>
    <path id="Path_1655" data-name="Path 1655" d="M192.2,352.411c.449-2.07,1.078-2.339.638-5a23.579,23.579,0,0,0-1.273-4.644,17.04,17.04,0,0,0-3.724,6.939c-.483,2.444.754,5.357,3.05,4.078C191.689,353.342,191.643,353.013,192.2,352.411Z" transform="translate(-134.754 -307.313)" fill="#fff" fill-rule="evenodd"/>
    <path id="Path_1656" data-name="Path 1656" d="M272.46,841.342c1.769.745,5.687,3.794,9.217,2.894,4.151-1.059,2.2-5.15-2.957-4.949a14.1,14.1,0,0,0-3.38.78A9.762,9.762,0,0,0,272.46,841.342Z" transform="translate(-210.712 -752.463)" fill="#fff" fill-rule="evenodd"/>
    <path id="Path_1657" data-name="Path 1657" d="M627.493,841.753a11.6,11.6,0,0,0-2.941-1.248c-7.932-2.644-10.979,3.117-6.086,4.239,2.8.641,7.062-1.523,9.025-2.991Z" transform="translate(-518.81 -752.944)" fill="#fff" fill-rule="evenodd"/>
    <path id="Path_1658" data-name="Path 1658" d="M155.35,422.32c-.535,2.153-1.5,3.716-1.676,6.484-.131,2.082.792,5.429,3.06,4.924,1.885-.42,2.3-3.875,1.63-6.031a20.966,20.966,0,0,0-2-4.029,3.554,3.554,0,0,0-1.019-1.347Z" transform="translate(-104.203 -378.635)" fill="#fff" fill-rule="evenodd"/>
    <path id="Path_1659" data-name="Path 1659" d="M242.081,418.636a8.875,8.875,0,0,0-5.975-.605c-1.191.475-3.569,2.4-2.626,4.333a2.284,2.284,0,0,0,2.488.906C238.316,422.926,241.446,419.672,242.081,418.636Z" transform="translate(-175.57 -374.537)" fill="#fff" fill-rule="evenodd"/>
    <path id="Path_1660" data-name="Path 1660" d="M605.831,757.37a29.7,29.7,0,0,0-3.975,3.348c-3.842,4.635,1.316,7.607,3.943,2.772.965-1.776.279-4.238.032-6.12Z" transform="translate(-504.801 -679.025)" fill="#fff" fill-rule="evenodd"/>
    <path id="Path_1661" data-name="Path 1661" d="M680.831,418.826a26.608,26.608,0,0,0,3.548,3.492c1.094.918,4.111,2,5.035.221.966-1.865-1.383-3.794-2.493-4.271a9.024,9.024,0,0,0-6.091.558Z" transform="translate(-576.838 -374.727)" fill="#fff" fill-rule="evenodd"/>
    <path id="Path_1662" data-name="Path 1662" d="M343.2,757.35c-.646,1.544-.841,4.678-.074,6.118.5.944,2.679,3.56,4.6,2.075,1.622-1.256.1-3.965-.733-4.936l-1.945-1.733c-.543-.425-1.4-1.093-1.844-1.523Z" transform="translate(-273.619 -679.007)" fill="#fff" fill-rule="evenodd"/>
    <path id="Path_1663" data-name="Path 1663" d="M207.315,537.2a10.508,10.508,0,0,0-5.049,2.092c-2.716,2.686-1.26,7.244,1.785,5.3C206.056,543.305,206.893,539.632,207.315,537.2Z" transform="translate(-146.494 -481.631)" fill="#fff" fill-rule="evenodd"/>
    <path id="Path_1664" data-name="Path 1664" d="M276.968,365.531c-.5.715-1.383,1.851-.5,2.961.61.765,2.114.983,3.389.755a20.528,20.528,0,0,0,5.586-2.91c-3.591-2.369-5.455-2.766-8.476-.806Z" transform="translate(-213.969 -326.598)" fill="#fff" fill-rule="evenodd"/>
    <path id="Path_1665" data-name="Path 1665" d="M723.546,481.111c-.374-.5-.465-1.04-1-1.68a3.962,3.962,0,0,0-1.59-1.265,12.741,12.741,0,0,0-5.2-.612c.812,2.1,3.393,6.738,6.269,6.434C723.514,483.831,723.558,482.557,723.546,481.111Z" transform="translate(-608.155 -428.138)" fill="#fff" fill-rule="evenodd"/>
    <path id="Path_1666" data-name="Path 1666" d="M215.223,476.963a8.32,8.32,0,0,0-5.947.945c-.854.657-2.938,3.265-1.36,4.883,1.55,1.589,4.067-.645,4.649-1.426,1.034-1.389,1.74-2.954,2.659-4.4Z" transform="translate(-152.329 -427.448)" fill="#fff" fill-rule="evenodd"/>
    <path id="Path_1667" data-name="Path 1667" d="M245.238,659.51a13.38,13.38,0,0,0-2.964,4.2c-.665,1.992.39,4.339,1.715,4.95,2.153.992,3.1-1.849,2.934-3.8-.057-.654-1.1-4.8-1.684-5.352Z" transform="translate(-183.465 -591.288)" fill="#fff" fill-rule="evenodd"/>
    <path id="Path_1668" data-name="Path 1668" d="M217.505,599.13a11.259,11.259,0,0,0-4.047,3.057c-2.836,3.815,1.822,8.965,3.824,3.313C217.871,603.838,217.544,600.989,217.505,599.13Z" transform="translate(-157.014 -537.154)" fill="#fff" fill-rule="evenodd"/>
    <path id="Path_1669" data-name="Path 1669" d="M711.838,659.5c-.52.5-.771,1.983-1.013,2.692a11.936,11.936,0,0,0-.681,2.83c-.093,1.9.829,4.592,2.945,3.629,1.4-.638,2.378-3.064,1.664-5.08a14.185,14.185,0,0,0-2.916-4.072Z" transform="translate(-603.115 -591.279)" fill="#fff" fill-rule="evenodd"/>
    <path id="Path_1670" data-name="Path 1670" d="M736.42,537.14a27.83,27.83,0,0,0,1.477,5.43c1.127,2.1,3.315,3.117,4.358,1.883a3.72,3.72,0,0,0,.418-2.982C742.017,538.683,739.1,537.676,736.42,537.14Z" transform="translate(-626.678 -481.577)" fill="#fff" fill-rule="evenodd"/>
    <path id="Path_1671" data-name="Path 1671" d="M737.99,602.4c.01,2,.123,3.683,1.384,4.938,1.364,1.355,2.924.528,3.429-1.092,1.071-3.437-2.388-6.241-4.709-7.062l-.1,3.217Z" transform="translate(-628.085 -537.199)" fill="#fff" fill-rule="evenodd"/>
    <path id="Path_1672" data-name="Path 1672" d="M1180.556,316.479c-3.109,0-5.266-2.448-5.266-5.784s2.157-5.784,5.266-5.784a4.662,4.662,0,0,1,4.734,4.072h4.846c-.589-5.193-4.342-8.734-9.552-8.734-5.742,0-10.084,4.4-10.084,10.446s4.342,10.446,10.084,10.446c5.21,0,8.964-3.541,9.552-8.734h-4.846A4.662,4.662,0,0,1,1180.556,316.479Z" transform="translate(-1216.498 -151.574)" fill="#fff"/>
    <path id="_1" data-name="1" d="M1392.564,300.25a10.451,10.451,0,1,0,10.112,10.446A10.115,10.115,0,0,0,1392.564,300.25Zm0,16.258c-3.082,0-5.294-2.656-5.294-5.814s2.213-5.814,5.294-5.814,5.294,2.656,5.294,5.814S1395.646,316.508,1392.564,316.508Z" transform="translate(-1406.55 -151.574)" fill="#fff"/>
    <path id="_2" data-name="2" d="M1617.06,304.25H1612.3v10.8c0,3.069-1.624,5.046-4.118,5.046s-4.089-1.977-4.089-5.046v-10.8h-4.761v10.712c0,6.225,3.418,9.8,8.852,9.8,5.462,0,8.88-3.571,8.88-9.8V304.25Z" transform="translate(-1600.967 -155.16)" fill="#fff"/>
    <path id="_3" data-name="3" d="M1806.506,318.5l4.089,5.814h5.714l-4.9-6.787a6.793,6.793,0,0,0,3.641-6.226c0-4.337-3.166-7.052-7.871-7.052h-8.347v20.065h4.734V318.5h2.941Zm-2.941-4.485v-5.371h3.5c1.821,0,3.278,1.032,3.278,2.655,0,1.653-1.456,2.714-3.278,2.714h-3.5Z" transform="translate(-1779.83 -155.16)" fill="#fff"/>
    <path id="_4" data-name="4" d="M1982.992,308.705V304.25H1966.13v4.455h6.078v15.61h4.735v-15.61Z" transform="translate(-1929.824 -155.16)" fill="#fff"/>
    <path id="_5" data-name="5" d="M2215.264,300.25a10.451,10.451,0,1,0,10.111,10.446A10.115,10.115,0,0,0,2215.264,300.25Zm0,16.258c-3.081,0-5.293-2.656-5.293-5.814s2.213-5.814,5.293-5.814,5.293,2.656,5.293,5.814S2218.345,316.508,2215.264,316.508Z" transform="translate(-2144.146 -151.574)" fill="#fff"/>
    <path id="_6" data-name="6" d="M2431.363,308.646h9.469v-4.4h-14.2v20.065h4.733v-7.082h8.181V312.9h-8.181Z" transform="translate(-2342.688 -155.16)" fill="#fff"/>
    <path id="_7" data-name="7" d="M2653.781,319.831l1.287,3.452h5.014l-8.068-20.183h-4.51l-8.095,20.183h5.042l1.26-3.452h8.067Zm-1.569-4.249h-4.93l2.465-6.668Z" transform="translate(-2533.457 -154.129)" fill="#fff"/>
    <path id="_8" data-name="8" d="M2857.35,304.25v20.065h4.734v-5.1h2.549c5.209,0,8.459-2.921,8.459-7.613,0-4.514-3.109-7.348-8.066-7.348h-7.675Zm4.734,10.594v-6.2h2.829c2.1,0,3.446,1.151,3.446,2.95a3.133,3.133,0,0,1-3.446,3.246Z" transform="translate(-2728.853 -155.16)" fill="#fff"/>
    <path id="_9" data-name="9" d="M3026.81,304.25v20.065h4.733v-5.1h2.549c5.21,0,8.46-2.921,8.46-7.613,0-4.514-3.109-7.348-8.066-7.348h-7.676Zm4.733,10.594v-6.2h2.83c2.1,0,3.445,1.151,3.445,2.95a3.132,3.132,0,0,1-3.445,3.246Z" transform="translate(-2880.782 -155.16)" fill="#fff"/>
    <path id="_10" data-name="10" d="M3201,308.587h9.664V304.25h-14.4v20.065h14.4v-4.338H3201V316.5h8.43v-4.249H3201Z" transform="translate(-3032.713 -155.16)" fill="#fff"/>
    <path id="_11" data-name="11" d="M3361.141,319.831l1.287,3.452h5.014l-8.066-20.183h-4.51l-8.095,20.183h5.041l1.261-3.452h8.067Zm-1.569-4.249h-4.931l2.466-6.668Z" transform="translate(-3167.645 -154.129)" fill="#fff"/>
    <path id="_12" data-name="12" d="M3578.855,319.918h-9.412V304.25h-4.732v20.065h14.145Z" transform="translate(-3363.04 -155.16)" fill="#fff"/>
    <path id="_13" data-name="13" d="M1182.524,595.492l4.09,5.814h5.714l-4.9-6.787a6.793,6.793,0,0,0,3.641-6.226c0-4.337-3.165-7.052-7.871-7.052h-8.347v20.065h4.734v-5.814h2.941Zm-2.941-4.485v-5.371h3.5c1.821,0,3.277,1.032,3.277,2.655,0,1.653-1.456,2.714-3.277,2.714h-3.5Z" transform="translate(-1208.29 -403.497)" fill="#fff"/>
    <path id="_14" data-name="14" d="M1363.924,585.577h9.664V581.24h-14.4v20.065h14.4v-4.339h-9.664v-3.481h8.431v-4.25h-8.431Z" transform="translate(-1373.561 -403.497)" fill="#fff"/>
    <path id="_15" data-name="15" d="M1522.69,581.24v20.065h4.734V596.2h2.549c5.21,0,8.46-2.921,8.46-7.612,0-4.514-3.11-7.348-8.068-7.348Zm4.734,10.594v-6.2h2.829c2.1,0,3.446,1.151,3.446,2.95a3.133,3.133,0,0,1-3.446,3.246Z" transform="translate(-1520.148 -403.497)" fill="#fff"/>
    <path id="_16" data-name="16" d="M1700.344,577.24a10.451,10.451,0,1,0,10.112,10.446A10.115,10.115,0,0,0,1700.344,577.24Zm0,16.258c-3.081,0-5.294-2.657-5.294-5.814s2.213-5.813,5.294-5.813,5.295,2.656,5.295,5.813S1703.426,593.5,1700.344,593.5Z" transform="translate(-1670.384 -399.91)" fill="#fff"/>
    <path id="_17" data-name="17" d="M1919.375,595.492l4.089,5.814h5.714l-4.9-6.787a6.793,6.793,0,0,0,3.641-6.226c0-4.337-3.165-7.052-7.871-7.052H1911.7v20.065h4.733v-5.814h2.941Zm-2.941-4.485v-5.371h3.5c1.82,0,3.277,1.032,3.277,2.655,0,1.653-1.457,2.714-3.277,2.714h-3.5Z" transform="translate(-1868.917 -403.497)" fill="#fff"/>
    <path id="_18" data-name="18" d="M2095.862,585.7V581.24H2079V585.7h6.078v15.61h4.734V585.7Z" transform="translate(-2018.911 -403.497)" fill="#fff"/>
    <path id="_19" data-name="19" d="M2349.944,581.24h-4.734v11.3l-9.187-11.3h-3.613v20.065h4.733V590.3l9.131,11.007h3.669Z" transform="translate(-2246.107 -403.497)" fill="#fff"/>
    <path id="_20" data-name="20" d="M2537.2,581.24h-4.734v20.065h4.734Z" transform="translate(-2425.472 -403.497)" fill="#fff"/>
    <path id="_21" data-name="21" d="M2624.593,586.456h-10.2v3.925l5.457.059a5.14,5.14,0,0,1-4.813,3.069,5.437,5.437,0,0,1-5.541-5.725c0-3.541,2.236-5.96,5.486-5.96a4.383,4.383,0,0,1,4.448,2.98h4.963c-.812-4.78-4.85-7.554-9.5-7.554-5.822,0-10.19,4.4-10.19,10.653a9.9,9.9,0,0,0,10.135,10.239,7.253,7.253,0,0,0,6.018-2.832l.2,2.42h3.535V586.457Z" transform="translate(-2490.239 -399.919)" fill="#fff"/>
    <path id="_22" data-name="22" d="M2836.314,585.577h9.664V581.24h-14.4v20.065h14.4v-4.339h-9.664v-3.481h8.431v-4.25h-8.431Z" transform="translate(-2693.64 -403.497)" fill="#fff"/>
    <path id="_23" data-name="23" d="M3002.774,595.492l4.09,5.814h5.714l-4.9-6.787a6.793,6.793,0,0,0,3.642-6.226c0-4.337-3.166-7.052-7.872-7.052H2995.1v20.065h4.734v-5.814h2.941Zm-2.941-4.485v-5.371h3.5c1.821,0,3.277,1.032,3.277,2.655,0,1.653-1.456,2.714-3.277,2.714h-3.5Z" transform="translate(-2840.245 -403.497)" fill="#fff"/>
    <path id="_24" data-name="24" d="M3184.174,581.24h-4.734v20.065h4.734Z" transform="translate(-3005.516 -403.497)" fill="#fff"/>
    <path id="_25" data-name="25" d="M3257.39,596.821l1.288,3.452h5.014l-8.066-20.183h-4.51l-8.1,20.183h5.041l1.261-3.452h8.067Zm-1.569-4.25h-4.931l2.465-6.668Z" transform="translate(-3062.52 -402.466)" fill="#fff"/>
  </g>
</svg>
