<svg id="noun_logout_1793400" xmlns="http://www.w3.org/2000/svg" width="57.047" height="57.044" viewBox="0 0 57.047 57.044">
  <g id="Group_4165" data-name="Group 4165" transform="translate(0 0)">
    <path id="Path_1621" data-name="Path 1621" d="M25.015,34.522a4.754,4.754,0,0,1,4.754-4.754H44.03V7.585A1.585,1.585,0,0,0,42.445,6H7.585A1.585,1.585,0,0,0,6,7.585V61.46a1.585,1.585,0,0,0,1.585,1.585h34.86A1.585,1.585,0,0,0,44.03,61.46V39.276H29.769A4.754,4.754,0,0,1,25.015,34.522Z" transform="translate(-6 -6)" fill="#2d002b"/>
    <path id="Path_1622" data-name="Path 1622" d="M54.29,26.288l-9.507-7.923a1.587,1.587,0,0,0-2.028,2.44L48.9,25.924H21.585a1.585,1.585,0,0,0,0,3.169H48.9l-6.148,5.118a1.587,1.587,0,0,0,2.028,2.44l9.507-7.923a1.585,1.585,0,0,0,0-2.44Z" transform="translate(2.184 1.014)" fill="#2d002b"/>
  </g>
</svg>
