<svg xmlns="http://www.w3.org/2000/svg" width="191.679" height="145.124" viewBox="0 0 191.679 145.124">
  <g id="_2345133554624" transform="translate(45.998)">
    <path id="Path_1643" data-name="Path 1643" d="M127.353,233.287l-8.663,7.941,17.129,11.729c1.412.94,2.176,1.623,3.588,2.563,1.309.872,2.119,1.429,3.338,2.339,4.649,3.469,2.832,3.135,13.319-3.856l28.859-19.4c0-9.57.473-17.717.473-26.967V180.2c-4.673,3.129-8.118,7.614-12.448,11.129a31.228,31.228,0,0,1-45.6,41.958Z" transform="translate(-97.45 -166.553)" fill="#2d002b" fill-rule="evenodd"/>
    <path id="Path_1644" data-name="Path 1644" d="M0,10.819V66.644a18.832,18.832,0,0,0,2.947-2.729L10.023,57.7A31.23,31.23,0,0,1,54.318,16.836a13.713,13.713,0,0,1,1.234-1.087,27.423,27.423,0,0,0,3.464-3.157c2.244-2.279,5.034-3.95,6.744-6.5C49.525-2.5,23.933-1.66,7.567,6.56,4.8,7.951,2.615,9.436,0,10.819Z" transform="translate(12.251 -0.011)" fill="#2d002b" fill-rule="evenodd"/>
    <path id="Path_1645" data-name="Path 1645" d="M314.279,438.28c.4.439,4.212,8.115,4.259,8.46l-8.432.008c.05-.529,3.638-7.439,4.174-8.467Zm-21.662.029a86.008,86.008,0,0,1,4.182,8.452l-8.437-.015c.08-.382,4.018-8.2,4.255-8.436Zm7.835,12.248c-.573.561.6,2.513-2.195,3.485-.623.217-.5-.267-.491,2.333h11.371c0-2.6.139-2.125-.594-2.356-2.491-.785-1.632-3.063-2.093-3.48a5.818,5.818,0,0,0-2.16-.092c.007-.14,1.456-15.451,1.817-16.09a21.9,21.9,0,0,1,3.563,1.956c1.667.845,2.407.687,4.316.979-.593,1.483-3.241,6.447-4.31,8.625-.488,1-.307.594-.769,1.013.823,3.252,10.009,3.2,10.8,0l-.279-.23c-.466-.441-3.175-6.161-3.608-7.013a23.292,23.292,0,0,1-1.184-2.411c1.978-1.388.551-2.7-.482-2.6-1.234.117-.4,1.973-5.363-1.081a9.568,9.568,0,0,0-10.7,0c-5.017,3.068-4.09,1.172-5.369,1.069-1.041-.084-2.442,1.269-.463,2.605a50.746,50.746,0,0,1-2.475,4.974c-.031.061-2.359,5-2.533,4.622-.01-.022-.049.034-.068.057.939,3.3,9.936,3.309,10.813,0-.792-.68-.747-1-1.434-2.343-.4-.793-.822-1.658-1.2-2.386l-2.439-4.955c4.779-.013,5.878-2.556,7.982-2.886l1.721,16.055c-.625.047-1.757-.149-2.181.143Z" transform="translate(-253.188 -399.249)" fill="#ce6d0d" fill-rule="evenodd"/>
    <path id="Path_1646" data-name="Path 1646" d="M196.4,291.794c-.126.516-.893,1.9-1.187,2.615a22.391,22.391,0,0,0-.922,2.763,21.743,21.743,0,0,0,1.752,15.581c.371.714,1.107,1.755,1.334,2.352l.3.3c.088.11.105.151.2.288a26.052,26.052,0,0,0,3.065,3.3l.509.55a6.417,6.417,0,0,0-3.212-1.186c-.819-.051-3.329-.071-3.893.271a14.437,14.437,0,0,0,4.284,3.54,3.643,3.643,0,0,0,3.149.017c1.35-.841-.135-2.366-.263-2.615,1.022.607,1.887,1.361,3.055,2.051a30.171,30.171,0,0,0,7.125,2.8,19.4,19.4,0,0,1,3.769,1.207l-.364.188c-.03.013-.063.023-.093.036-.123.047-.252.082-.371.121a10.255,10.255,0,0,0-4.454,2.523c.68.383,1.1.281,1.481.871.851-.86.457-.928,2.252-2.033a11.773,11.773,0,0,1,2.83-1.276,11.719,11.719,0,0,1,2.907,1.322c1.7,1.072,1.287,1.047,2.175,1.989.446-.625.8-.462,1.485-.878-1.793-2-4.266-2.171-5.339-2.862.47-.284,6.146-1.882,7.618-2.432,3.678-1.374,3.922-2.168,6.387-3.622-.21.41-.177.242-.453.613a1.781,1.781,0,0,0-.312.683,1.175,1.175,0,0,0,.582,1.356c1.831,1.009,4.215-.521,5.49-1.683l1.862-1.911c-.553-.353-3.2-.328-4.019-.267a6.619,6.619,0,0,0-3.085,1.18c.136-.211.038-.064.192-.235.025-.028.1-.107.13-.133l.819-.768a12.909,12.909,0,0,0,1.02-1.067l1.915-2.239a16.569,16.569,0,0,1,.9-1.56,21.908,21.908,0,0,0,.507-20.838,27.451,27.451,0,0,0-3.371-4.961c-.415-.408-.314-.151-.529-.665,2.866,1.809,3.444-1.152,2.22-3.233a13.331,13.331,0,0,0-3.818-3.869c-.075,3.566-.307,4.352,1.435,6.93-.756-.36-1.565-1.623-2.514-2.081a1.877,1.877,0,0,0-.547-2.158c-1.819-1.925-4.091-1.752-6.747-1.35.177.564,1.478,1.425,1.972,1.955a6,6,0,0,0,3.985,2.024c1.05-.027.7-.633,1.957.5a7.8,7.8,0,0,1,1.5,1.515,3.585,3.585,0,0,0-3.376-.822,9.9,9.9,0,0,0-2.865,1.388,16.176,16.176,0,0,0,3.99,2.1c2.192.467,3.574-.6,2.3-2.609.407.221.306.216.6.567.171.2.3.289.475.5,1.759,2.055,4.513,6.765,4.611,9.125.727,1.264.762,4.991.644,6.629a21.1,21.1,0,0,1-3.931,10.925,16.439,16.439,0,0,1-3.616,3.829c.189-.439.216-.319.473-.722,1.1-1.712.049-4.418-.805-5.357l-.7.914a12.692,12.692,0,0,0-1.634,2.9c-.429,1.577-.05,3.895,2.608,2.3l-.739.676a21.9,21.9,0,0,1-6.023,3.29,78.492,78.492,0,0,1-8.347,2.326,77.766,77.766,0,0,1-8.346-2.323,22.267,22.267,0,0,1-3.681-1.714,18.566,18.566,0,0,1-3.014-2.179c-.011-.046-.045-.051-.064-.08.6.356,1.65.922,2.309.234a3.017,3.017,0,0,0,.3-2.537,14.8,14.8,0,0,0-2.335-3.809c-.873.988-1.922,3.7-.751,5.423.276.407.233.2.419.654a15,15,0,0,1-2.933-2.914,21.456,21.456,0,0,1-2.839-22,24.741,24.741,0,0,1,4.292-6.5c.251-.249.064-.121.357-.254.19-.471.561-.62,1.023-1.066,2.389-2.3,1.081-.042,4.1-1.291a7.944,7.944,0,0,0,2.282-1.644c.668-.73,1.367-1.171,1.988-1.9-2.171-.994-8.26.018-7.309,3.457a7.787,7.787,0,0,0-1.308,1.014,4.976,4.976,0,0,1-1.213,1.07c1.737-2.534,1.489-3.385,1.443-6.939a13.035,13.035,0,0,0-3.864,3.952c-1.2,2.212-.5,4.886,2.264,3.153-.217.523-.113.252-.529.667-.875.872-2.528,3.584-2.942,4.042Z" transform="translate(-166.667 -258.777)" fill="#2d002b" fill-rule="evenodd"/>
    <path id="Path_1647" data-name="Path 1647" d="M163.213,707.548l-.61-.623c-1.616-1.62-3.638-2.053-5.993-2.345.541,1.811,3.329,6.247,6.038,5.576,1.526-.378.829-1.71.565-2.607Z" transform="translate(-132.498 -651.22)" fill="#2d002b" fill-rule="evenodd"/>
    <path id="Path_1648" data-name="Path 1648" d="M750.768,707.514c-.248.878-.959,2.219.56,2.6,2.726.685,5.51-3.768,6.047-5.576-1.615.217-4.243.745-5.436,1.8Z" transform="translate(-681.303 -651.183)" fill="#2d002b" fill-rule="evenodd"/>
    <path id="Path_1649" data-name="Path 1649" d="M795.485,610.4a14.949,14.949,0,0,0-4,2.351c-.651.618-2.537,2.968-1.207,4.3.641.641,1.717.253,2.3-.14C794.368,615.692,795.235,612.61,795.485,610.4Z" transform="translate(-717.746 -564.173)" fill="#2d002b" fill-rule="evenodd"/>
    <path id="Path_1650" data-name="Path 1650" d="M139.826,617.044c1.369-1.312-.6-3.725-1.207-4.3a15.129,15.129,0,0,0-4-2.349,14.261,14.261,0,0,0,1.471,4.877c.413.794,2.379,3.076,3.735,1.777Z" transform="translate(-112.173 -564.163)" fill="#2d002b" fill-rule="evenodd"/>
    <path id="Path_1651" data-name="Path 1651" d="M137.738,514.07c-.173,2-.485,5.946,1.356,7.39,2.433,1.908,3.634-1.547,1.681-4.378-.208-.3-.438-.542-.653-.819a5.363,5.363,0,0,0-.813-.779C138.794,515,138.4,514.2,137.738,514.07Z" transform="translate(-114.931 -475.138)" fill="#2d002b" fill-rule="evenodd"/>
    <path id="Path_1652" data-name="Path 1652" d="M799.086,422.711a17.343,17.343,0,0,0-2.134,3.907c-1.075,3.417,1.536,6.053,2.978,3.34,1.066-2.006.048-5.813-.844-7.248Z" transform="translate(-724.11 -390.697)" fill="#2d002b" fill-rule="evenodd"/>
    <path id="Path_1653" data-name="Path 1653" d="M761.906,342.81a14.47,14.47,0,0,0-1.025,4.928c.486,5.255,5.362,3.912,3.344-1.145A13.744,13.744,0,0,0,761.906,342.81Z" transform="translate(-690.998 -316.848)" fill="#2d002b" fill-rule="evenodd"/>
    <path id="Path_1654" data-name="Path 1654" d="M811.015,514.03c-.558.115-2.579,2.381-2.988,2.947-.716.989-1.593,3.494-.52,4.635.776.825,2.618.121,3.267-2.005a14.168,14.168,0,0,0,.241-5.576Z" transform="translate(-733.636 -475.101)" fill="#2d002b" fill-rule="evenodd"/>
    <path id="Path_1655" data-name="Path 1655" d="M191.005,349.828c.329-1.515.789-1.712.467-3.659a17.262,17.262,0,0,0-.932-3.4,12.475,12.475,0,0,0-2.726,5.08c-.354,1.79.552,3.922,2.233,2.985C190.63,350.51,190.6,350.269,191.005,349.828Z" transform="translate(-161.268 -316.811)" fill="#2d002b" fill-rule="evenodd"/>
    <path id="Path_1656" data-name="Path 1656" d="M272.46,840.79c1.3.545,4.164,2.778,6.748,2.119,3.039-.775,1.608-3.771-2.165-3.623a10.325,10.325,0,0,0-2.474.571A7.145,7.145,0,0,0,272.46,840.79Z" transform="translate(-239.574 -775.719)" fill="#2d002b" fill-rule="evenodd"/>
    <path id="Path_1657" data-name="Path 1657" d="M624.443,841.234a8.49,8.49,0,0,0-2.153-.913c-5.807-1.936-8.038,2.282-4.455,3.1,2.046.47,5.17-1.115,6.608-2.19Z" transform="translate(-557.195 -776.216)" fill="#2d002b" fill-rule="evenodd"/>
    <path id="Path_1658" data-name="Path 1658" d="M154.9,422.32c-.392,1.576-1.1,2.72-1.227,4.747-.1,1.525.58,3.975,2.24,3.605,1.38-.308,1.681-2.837,1.194-4.415a15.349,15.349,0,0,0-1.461-2.95,2.6,2.6,0,0,0-.746-.986Z" transform="translate(-129.773 -390.337)" fill="#2d002b" fill-rule="evenodd"/>
    <path id="Path_1659" data-name="Path 1659" d="M239.719,418.4a6.5,6.5,0,0,0-4.374-.443c-.872.348-2.613,1.76-1.923,3.173a1.672,1.672,0,0,0,1.821.663C236.962,421.54,239.254,419.157,239.719,418.4Z" transform="translate(-203.347 -386.113)" fill="#2d002b" fill-rule="evenodd"/>
    <path id="Path_1660" data-name="Path 1660" d="M604.4,757.37a21.743,21.743,0,0,0-2.91,2.452c-2.813,3.394.963,5.569,2.887,2.03.707-1.3.2-3.1.023-4.48Z" transform="translate(-542.753 -700.012)" fill="#2d002b" fill-rule="evenodd"/>
    <path id="Path_1661" data-name="Path 1661" d="M680.831,418.595a19.478,19.478,0,0,0,2.6,2.557c.8.672,3.01,1.468,3.686.162.707-1.365-1.013-2.778-1.825-3.127a6.607,6.607,0,0,0-4.459.408Z" transform="translate(-617.016 -386.309)" fill="#2d002b" fill-rule="evenodd"/>
    <path id="Path_1662" data-name="Path 1662" d="M343.043,757.35a6.668,6.668,0,0,0-.055,4.479c.368.691,1.961,2.606,3.366,1.519,1.188-.919.075-2.9-.537-3.614l-1.424-1.269c-.4-.311-1.022-.8-1.35-1.115Z" transform="translate(-304.425 -699.993)" fill="#2d002b" fill-rule="evenodd"/>
    <path id="Path_1663" data-name="Path 1663" d="M205.578,537.2a7.693,7.693,0,0,0-3.7,1.531c-1.989,1.967-.922,5.3,1.307,3.878C204.657,541.67,205.27,538.981,205.578,537.2Z" transform="translate(-173.372 -496.516)" fill="#2d002b" fill-rule="evenodd"/>
    <path id="Path_1664" data-name="Path 1664" d="M276.734,365.2c-.364.523-1.013,1.355-.364,2.168a2.774,2.774,0,0,0,2.481.553,15.029,15.029,0,0,0,4.09-2.13c-2.629-1.734-3.993-2.025-6.206-.59Z" transform="translate(-242.932 -336.692)" fill="#2d002b" fill-rule="evenodd"/>
    <path id="Path_1665" data-name="Path 1665" d="M721.461,480.153c-.274-.364-.341-.761-.732-1.23a2.9,2.9,0,0,0-1.164-.926,9.328,9.328,0,0,0-3.8-.448c.595,1.54,2.484,4.933,4.589,4.711C721.437,482.144,721.469,481.212,721.461,480.153Z" transform="translate(-649.301 -441.37)" fill="#2d002b" fill-rule="evenodd"/>
    <path id="Path_1666" data-name="Path 1666" d="M213.111,476.91a6.092,6.092,0,0,0-4.354.692c-.626.481-2.151,2.39-1,3.575,1.135,1.163,2.978-.473,3.4-1.044.757-1.017,1.274-2.163,1.946-3.222Z" transform="translate(-179.387 -440.659)" fill="#2d002b" fill-rule="evenodd"/>
    <path id="Path_1667" data-name="Path 1667" d="M244.389,659.51a9.8,9.8,0,0,0-2.17,3.074,3.171,3.171,0,0,0,1.256,3.624c1.576.726,2.272-1.353,2.148-2.78a14.532,14.532,0,0,0-1.233-3.918Z" transform="translate(-211.485 -609.563)" fill="#2d002b" fill-rule="evenodd"/>
    <path id="Path_1668" data-name="Path 1668" d="M216.182,599.13a8.244,8.244,0,0,0-2.963,2.238c-2.077,2.793,1.334,6.564,2.8,2.426C216.45,602.577,216.21,600.491,216.182,599.13Z" transform="translate(-184.217 -553.756)" fill="#2d002b" fill-rule="evenodd"/>
    <path id="Path_1669" data-name="Path 1669" d="M711.383,659.5a6.106,6.106,0,0,0-.741,1.971,8.74,8.74,0,0,0-.5,2.072c-.068,1.389.607,3.362,2.156,2.657a3.172,3.172,0,0,0,1.219-3.719,10.385,10.385,0,0,0-2.135-2.981Z" transform="translate(-644.105 -609.554)" fill="#2d002b" fill-rule="evenodd"/>
    <path id="Path_1670" data-name="Path 1670" d="M736.42,537.14a20.375,20.375,0,0,0,1.081,3.975c.825,1.538,2.427,2.282,3.191,1.378A2.723,2.723,0,0,0,741,540.31C740.518,538.27,738.381,537.532,736.42,537.14Z" transform="translate(-668.396 -496.461)" fill="#2d002b" fill-rule="evenodd"/>
    <path id="Path_1671" data-name="Path 1671" d="M737.99,601.535c.007,1.461.09,2.7,1.013,3.615,1,.992,2.141.387,2.511-.8.784-2.517-1.748-4.569-3.447-5.17l-.076,2.355Z" transform="translate(-669.848 -553.802)" fill="#2d002b" fill-rule="evenodd"/>
    <path id="Path_1672" data-name="Path 1672" d="M1177.862,312.132c-2.276,0-3.856-1.793-3.856-4.234s1.579-4.234,3.856-4.234a3.413,3.413,0,0,1,3.466,2.981h3.548a6.835,6.835,0,0,0-6.993-6.394,7.652,7.652,0,0,0,0,15.3,6.836,6.836,0,0,0,6.993-6.394h-3.548A3.413,3.413,0,0,1,1177.862,312.132Z" transform="translate(-1216.498 -191.4)"/>
    <path id="_1" data-name="1" d="M1389.863,300.25a7.652,7.652,0,1,0,7.4,7.648A7.406,7.406,0,0,0,1389.863,300.25Zm0,11.9a4.275,4.275,0,1,1,3.876-4.256A4.029,4.029,0,0,1,1389.863,312.153Z" transform="translate(-1412.424 -191.4)"/>
    <path id="_2" data-name="2" d="M1612.311,304.25h-3.486v7.907c0,2.247-1.189,3.694-3.015,3.694s-2.994-1.447-2.994-3.694V304.25h-3.486v7.842c0,4.558,2.5,7.172,6.481,7.172,4,0,6.5-2.614,6.5-7.172V304.25Z" transform="translate(-1612.85 -195.097)"/>
    <path id="_3" data-name="3" d="M1804.45,314.684l2.994,4.256h4.183l-3.589-4.969a4.973,4.973,0,0,0,2.666-4.558c0-3.175-2.318-5.163-5.763-5.163h-6.111v14.69h3.466v-4.256h2.153ZM1802.3,311.4v-3.932h2.563c1.333,0,2.4.756,2.4,1.944a2.145,2.145,0,0,1-2.4,1.987H1802.3Z" transform="translate(-1797.241 -195.097)"/>
    <path id="_4" data-name="4" d="M1978.475,307.512V304.25H1966.13v3.262h4.45V318.94h3.466V307.512Z" transform="translate(-1951.871 -195.097)"/>
    <path id="_5" data-name="5" d="M2212.563,300.25a7.652,7.652,0,1,0,7.4,7.648A7.406,7.406,0,0,0,2212.563,300.25Zm0,11.9a4.275,4.275,0,1,1,3.875-4.256A4.029,4.029,0,0,1,2212.563,312.153Z" transform="translate(-2172.817 -191.4)"/>
    <path id="_6" data-name="6" d="M2430.1,307.469h6.933V304.25h-10.4v14.69h3.465v-5.185h5.989V310.58H2430.1Z" transform="translate(-2377.496 -195.097)"/>
    <path id="_7" data-name="7" d="M2649.931,315.349l.943,2.527h3.671l-5.907-14.777h-3.3l-5.926,14.777h3.691l.923-2.527h5.906Zm-1.148-3.111h-3.609l1.8-4.882Z" transform="translate(-2574.161 -194.034)"/>
    <path id="_8" data-name="8" d="M2857.351,304.25v14.69h3.465V315.2h1.866c3.814,0,6.193-2.139,6.193-5.573,0-3.305-2.276-5.379-5.906-5.379Zm3.465,7.756v-4.536h2.071c1.539,0,2.523.843,2.523,2.16a2.294,2.294,0,0,1-2.523,2.377Z" transform="translate(-2775.596 -195.097)"/>
    <path id="_9" data-name="9" d="M3026.81,304.25v14.69h3.465V315.2h1.866c3.814,0,6.194-2.139,6.194-5.573,0-3.305-2.276-5.379-5.905-5.379h-5.619Zm3.465,7.756v-4.536h2.072c1.538,0,2.522.843,2.522,2.16a2.293,2.293,0,0,1-2.522,2.377Z" transform="translate(-2932.221 -195.097)"/>
    <path id="_10" data-name="10" d="M3199.736,307.426h7.075V304.25H3196.27v14.69h10.541v-3.176h-7.075v-2.548h6.172V310.1h-6.172Z" transform="translate(-3088.847 -195.097)"/>
    <path id="_11" data-name="11" d="M3357.291,315.349l.942,2.527h3.671L3356,303.1h-3.3l-5.927,14.777h3.691l.923-2.527h5.906Zm-1.148-3.111h-3.61l1.805-4.882Z" transform="translate(-3227.95 -194.034)"/>
    <path id="_12" data-name="12" d="M3575.066,315.721h-6.891V304.25h-3.465v14.69h10.355Z" transform="translate(-3429.384 -195.097)"/>
    <path id="_13" data-name="13" d="M1180.468,591.674l2.995,4.256h4.184l-3.588-4.969a4.973,4.973,0,0,0,2.666-4.559c0-3.175-2.318-5.163-5.763-5.163h-6.111v14.69h3.466v-4.256h2.153Zm-2.153-3.284v-3.932h2.564c1.333,0,2.4.756,2.4,1.944a2.145,2.145,0,0,1-2.4,1.987h-2.564Z" transform="translate(-1211.654 -451.11)"/>
    <path id="_14" data-name="14" d="M1362.656,584.416h7.075V581.24H1359.19v14.69h10.541v-3.176h-7.075v-2.548h6.172v-3.111h-6.172Z" transform="translate(-1382.033 -451.11)"/>
    <path id="_15" data-name="15" d="M1522.69,581.24v14.69h3.466v-3.738h1.866c3.814,0,6.193-2.139,6.193-5.573,0-3.305-2.277-5.379-5.906-5.379Zm3.466,7.756v-4.536h2.071c1.538,0,2.523.843,2.523,2.16a2.294,2.294,0,0,1-2.523,2.376Z" transform="translate(-1533.151 -451.11)"/>
    <path id="_16" data-name="16" d="M1697.642,577.24a7.652,7.652,0,1,0,7.4,7.648A7.406,7.406,0,0,0,1697.642,577.24Zm0,11.9a4.275,4.275,0,1,1,3.876-4.256A4.029,4.029,0,0,1,1697.642,589.143Z" transform="translate(-1688.03 -447.412)"/>
    <path id="_17" data-name="17" d="M1917.32,591.674l2.994,4.256h4.183l-3.589-4.969a4.973,4.973,0,0,0,2.666-4.559c0-3.175-2.317-5.163-5.762-5.163H1911.7v14.69h3.466v-4.256h2.153Zm-2.153-3.284v-3.932h2.563c1.333,0,2.4.756,2.4,1.944a2.145,2.145,0,0,1-2.4,1.987h-2.563Z" transform="translate(-1892.699 -451.11)"/>
    <path id="_18" data-name="18" d="M2091.345,584.5V581.24H2079V584.5h4.45V595.93h3.466V584.5Z" transform="translate(-2047.329 -451.11)"/>
    <path id="_19" data-name="19" d="M2345.247,581.24h-3.466v8.274l-6.726-8.274h-2.645v14.69h3.466v-8.058l6.685,8.058h2.686Z" transform="translate(-2281.547 -451.11)"/>
    <path id="_20" data-name="20" d="M2535.936,581.24h-3.466v14.69h3.466Z" transform="translate(-2466.456 -451.11)"/>
    <path id="_21" data-name="21" d="M2619.267,583.99H2611.8v2.873l4,.043a3.763,3.763,0,0,1-3.524,2.247,3.981,3.981,0,0,1-4.057-4.191c0-2.592,1.637-4.364,4.016-4.364a3.209,3.209,0,0,1,3.257,2.182h3.633a6.7,6.7,0,0,0-6.952-5.53c-4.262,0-7.461,3.219-7.461,7.8a7.251,7.251,0,0,0,7.42,7.5,5.31,5.31,0,0,0,4.406-2.074l.143,1.771h2.588v-8.252Z" transform="translate(-2533.224 -447.422)"/>
    <path id="_22" data-name="22" d="M2835.046,584.416h7.075V581.24H2831.58v14.69h10.541v-3.176h-7.075v-2.548h6.173v-3.111h-6.173Z" transform="translate(-2742.913 -451.11)"/>
    <path id="_23" data-name="23" d="M3000.718,591.674l2.995,4.256h4.183l-3.588-4.969a4.974,4.974,0,0,0,2.666-4.559c0-3.175-2.318-5.163-5.763-5.163H2995.1v14.69h3.466v-4.256h2.153Zm-2.153-3.284v-3.932h2.564c1.333,0,2.4.756,2.4,1.944a2.145,2.145,0,0,1-2.4,1.987h-2.564Z" transform="translate(-2894.048 -451.11)"/>
    <path id="_24" data-name="24" d="M3182.906,581.24h-3.466v14.69h3.466Z" transform="translate(-3064.427 -451.11)"/>
    <path id="_25" data-name="25" d="M3253.541,592.339l.943,2.527h3.671l-5.905-14.777h-3.3l-5.927,14.777h3.691l.923-2.527h5.906Zm-1.149-3.111h-3.61l1.8-4.882Z" transform="translate(-3123.193 -450.047)"/>
  </g>
</svg>
