<svg id="noun_dashboard_2617864" xmlns="http://www.w3.org/2000/svg" width="85.971" height="85.969" viewBox="0 0 85.971 85.969">
  <path id="Path_1700" data-name="Path 1700" d="M35.189,39.546H4.357A4.357,4.357,0,0,1,0,35.189V4.357A4.357,4.357,0,0,1,4.357,0H35.19a4.357,4.357,0,0,1,4.356,4.357V35.19A4.357,4.357,0,0,1,35.189,39.546Z" fill="#ce6d0d"/>
  <path id="Path_1701" data-name="Path 1701" d="M89.189,39.546H58.357A4.357,4.357,0,0,1,54,35.189V4.357A4.357,4.357,0,0,1,58.357,0H89.19a4.357,4.357,0,0,1,4.356,4.357V35.19A4.357,4.357,0,0,1,89.189,39.546Z" transform="translate(-7.577)" fill="#ce6d0d"/>
  <path id="Path_1702" data-name="Path 1702" d="M35.189,93.546H4.357A4.357,4.357,0,0,1,0,89.189V58.357A4.357,4.357,0,0,1,4.357,54H35.19a4.357,4.357,0,0,1,4.356,4.357V89.19A4.357,4.357,0,0,1,35.189,93.546Z" transform="translate(0 -7.576)" fill="#ce6d0d"/>
  <path id="Path_1703" data-name="Path 1703" d="M89.189,93.546H58.357A4.357,4.357,0,0,1,54,89.189V58.357A4.357,4.357,0,0,1,58.357,54H89.19a4.357,4.357,0,0,1,4.357,4.357V89.19A4.358,4.358,0,0,1,89.189,93.546Z" transform="translate(-7.577 -7.576)" fill="#ce6d0d"/>
</svg>
