<svg xmlns="http://www.w3.org/2000/svg" width="110.62" height="110.619" viewBox="0 0 110.62 110.619">
  <g id="Report" transform="translate(-12808.69 -4589.69)">
    <g id="Report-2" data-name="Report" transform="translate(12808.69 4589.69)">
      <path id="Path_1700" data-name="Path 1700" d="M45.279,50.885H5.606A5.606,5.606,0,0,1,0,45.279V5.606A5.606,5.606,0,0,1,5.606,0H45.28a5.606,5.606,0,0,1,5.605,5.606V45.28A5.606,5.606,0,0,1,45.279,50.885Z" fill="#2d002b"/>
      <path id="Path_1701" data-name="Path 1701" d="M99.279,50.885H59.606A5.606,5.606,0,0,1,54,45.279V5.606A5.606,5.606,0,0,1,59.606,0H99.28a5.606,5.606,0,0,1,5.605,5.606V45.28A5.606,5.606,0,0,1,99.279,50.885Z" transform="translate(5.734)" fill="#2d002b"/>
      <path id="Path_1702" data-name="Path 1702" d="M45.279,104.885H5.606A5.606,5.606,0,0,1,0,99.279V59.606A5.606,5.606,0,0,1,5.606,54H45.28a5.606,5.606,0,0,1,5.605,5.606V99.28A5.606,5.606,0,0,1,45.279,104.885Z" transform="translate(0 5.734)" fill="#2d002b"/>
      <path id="Path_1703" data-name="Path 1703" d="M99.279,104.885H59.606A5.606,5.606,0,0,1,54,99.279V59.606A5.606,5.606,0,0,1,59.606,54H99.28a5.606,5.606,0,0,1,5.606,5.606V99.28A5.608,5.608,0,0,1,99.279,104.885Z" transform="translate(5.734 5.734)" fill="#2d002b"/>
    </g>
  </g>
</svg>
