<svg xmlns="http://www.w3.org/2000/svg" width="144.378" height="144.378" viewBox="0 0 144.378 144.378">
  <g id="Sad_face" data-name="Sad face" transform="translate(-143.787 -164.517)">
    <g id="_1780946821968" transform="translate(143.787 164.517)">
      <path id="Path_655" data-name="Path 655" d="M263.345,227.287v2.064H242.719a41.771,41.771,0,0,1,32.14-40.046c19.989-4.652,37.939,5.681,46.477,23.307a45.069,45.069,0,0,1,3.882,16.739H304.592c0-12.038-9.877-20.626-18.562-20.626H281.9c-8.862,0-18.562,9.7-18.562,18.562Zm41.247-80.436h20.626v20.626H304.592Zm-61.873,0h20.626v20.626H242.719ZM211.78,194.975c0,13.528.819,22.4,6.872,34.375,4.534,8.97,7.392,13.23,14.269,20.107,11.264,11.264,29.351,21.141,46.923,21.141,13.774,0,22.67-.608,35.066-6.872,22.979-11.612,41.247-35.517,41.247-61.192,0-19.244-2.608-30.326-13.19-45.933-11.063-16.318-34.1-30.38-54.869-30.38-19.425,0-30.38,2.647-45.933,13.19-16.925,11.475-30.38,34.625-30.38,55.56Z" transform="translate(-211.78 -126.22)" fill="#ffad40" fill-rule="evenodd"/>
    </g>
  </g>
</svg>
