<svg xmlns="http://www.w3.org/2000/svg" width="72.404" height="95.03" viewBox="0 0 72.404 95.03">
  <path id="Path_213" data-name="Path 213" d="M67.353,32.677H62.828v-9.05a22.626,22.626,0,1,0-45.252,0v9.05H13.05A9.077,9.077,0,0,0,4,41.727V86.98a9.077,9.077,0,0,0,9.05,9.05h54.3a9.077,9.077,0,0,0,9.05-9.05V41.727A9.077,9.077,0,0,0,67.353,32.677ZM40.2,73.4a9.05,9.05,0,1,1,9.05-9.05A9.077,9.077,0,0,1,40.2,73.4ZM54.23,32.677H26.174v-9.05a14.028,14.028,0,0,1,28.056,0Z" transform="translate(-4 -1)" fill="#2d002b"/>
</svg>
