<svg xmlns="http://www.w3.org/2000/svg" width="49.561" height="48.303" viewBox="0 0 49.561 48.303">
  <g id="noun_send_54921" transform="translate(-4.5 -34.77)">
    <path id="Path_41" data-name="Path 41" d="M54.061,34.136a2.02,2.02,0,0,0-1.191-1.814c-.042-.029-47.056-22.236-47.056-22.236A.849.849,0,0,0,5.438,10a.89.89,0,0,0-.514.162,1.028,1.028,0,0,0-.425.843v20.14a.975.975,0,0,0,.9,1.005l46.528,2-46.528,2a.978.978,0,0,0-.9,1.008V57.3a1.033,1.033,0,0,0,.425.844.907.907,0,0,0,.514.163.859.859,0,0,0,.377-.087L52.358,36.238A2.363,2.363,0,0,0,54.061,34.136Z" transform="translate(0 24.77)" fill="#fff"/>
  </g>
</svg>
