<svg xmlns="http://www.w3.org/2000/svg" width="169.882" height="156.558" viewBox="0 0 169.882 156.558">
  <g id="Support" transform="translate(-12902.598 -4702.858)">
    <g id="noun_support_290423" transform="translate(12902.598 4702.858)">
      <path id="Path_1623" data-name="Path 1623" d="M-93.094,456.662C-96.9,404.555-117.363,387.9-155.431,387.9c0,0-64.955,0-64.955,78.041,0,67.1-21.414,61.386-21.414,61.386s15.228,13.086,59.007,17.131a39.575,39.575,0,0,0,0-14.99c-6.9-7.376-16.655-20.224-16.655-33.548-9.755-2.855-11.9-9.756-8.8-16.417,30.693-24.983,24.982-59.245,24.982-59.245,10.469,40.687,58.769,52.583,72.093,53.3,0,0,15.942,9.755,0,20.938v.238a2.908,2.908,0,0,0-.714,2.141c0,4.283-1.19,7.614-3.569,10.231-3.331,3.331-9.517,5.472-17.845,5.948a9.872,9.872,0,0,0-9.041-6.186,9.648,9.648,0,0,0-9.755,9.755,9.649,9.649,0,0,0,9.755,9.755,9.511,9.511,0,0,0,9.041-6.424c6.662-.476,12.135-1.666,16.417-3.807-2.855,5.234-6.662,9.517-13.086,14.038a70.716,70.716,0,0,0,1.19,13.8c43.541-4.045,56.865-17.369,56.865-17.369S-89.525,508.768-93.094,456.662Z" transform="translate(241.8 -387.9)" fill="#2d002b"/>
    </g>
  </g>
</svg>
