<svg id="noun_Alert_File_861067" data-name="noun_Alert File_861067" xmlns="http://www.w3.org/2000/svg" width="46.625" height="56.812" viewBox="0 0 46.625 56.812">
  <path id="Path_1614" data-name="Path 1614" d="M29.192,45H11.381a1.281,1.281,0,1,0,0,2.561H29.192a1.281,1.281,0,1,0,0-2.561Z" transform="translate(-4.221 -18.806)" fill="none"/>
  <path id="Path_1615" data-name="Path 1615" d="M11.264,34.461h29.4a1.281,1.281,0,0,0,1.222-1.281A1.234,1.234,0,0,0,40.718,31.9H11.264a1.286,1.286,0,0,0,0,2.561Z" transform="translate(-4.221 -13.331)" fill="none"/>
  <path id="Path_1616" data-name="Path 1616" d="M43.221,18.9H11.381a1.281,1.281,0,1,0,0,2.561h31.84a1.281,1.281,0,0,0,0-2.561Z" transform="translate(-4.221 -7.899)" fill="none"/>
  <path id="Path_1617" data-name="Path 1617" d="M53.966,65.5a5.966,5.966,0,1,0,5.966,5.966A5.966,5.966,0,0,0,53.966,65.5Zm.8,9.2H53.413V73.87c0-.355.157-.541.512-.541h.844Zm0-1.845H53.413V68.37h.844c.361,0,.512.186.512.541Z" transform="translate(-20.06 -27.373)" fill="none"/>
  <path id="Path_1618" data-name="Path 1618" d="M57.3,79.491v.827h1.356V78.95h-.844C57.457,78.95,57.3,79.136,57.3,79.491Z" transform="translate(-23.946 -32.994)" fill="#2d002b"/>
  <path id="Path_1619" data-name="Path 1619" d="M58.144,70.43H57.3v4.482h1.356V70.971C58.656,70.616,58.5,70.43,58.144,70.43Z" transform="translate(-23.946 -29.434)" fill="#2d002b"/>
  <path id="Path_1620" data-name="Path 1620" d="M40.4,0H6.519A6.508,6.508,0,0,0,0,6.5v43.8a6.612,6.612,0,0,0,6.461,6.519H40.106a6.508,6.508,0,0,0,6.519-6.5h0V6.351A6.287,6.287,0,0,0,40.4,0ZM24.972,28.755H7.16a1.281,1.281,0,0,1,0-2.561H24.972a1.281,1.281,0,1,1,0,2.561ZM5.885,19.971a1.286,1.286,0,0,1,1.164-1.4H36.5a1.234,1.234,0,0,1,1.164,1.281,1.281,1.281,0,0,1-1.222,1.281H7.043A1.286,1.286,0,0,1,5.885,19.971ZM33.907,50.059a5.966,5.966,0,1,1,5.966-5.966A5.966,5.966,0,0,1,33.907,50.059ZM39,13.563H7.16A1.281,1.281,0,1,1,7.16,11H39a1.281,1.281,0,0,1,0,2.561Z" transform="translate(0 0)" fill="#2d002b"/>
</svg>
