<svg xmlns="http://www.w3.org/2000/svg" width="250" height="73.803" viewBox="0 0 222.558 73.803">
  <g id="CAR_LOGO" data-name="CAR LOGO" transform="translate(508.058 -490.275)">
    <path id="Path_1643" data-name="Path 1643" d="M125.531,222.122l-6.841,6.271,13.526,9.262c1.115.742,1.718,1.282,2.834,2.024,1.034.689,1.673,1.129,2.636,1.847,3.671,2.739,2.237,2.475,10.517-3.045l22.789-15.318c0-7.557.374-13.991.374-21.295V180.2c-3.69,2.471-6.411,6.012-9.83,8.788a24.66,24.66,0,0,1-36.005,33.133Z" transform="translate(-619.649 320.851)" fill="#2d002b" fill-rule="evenodd"/>
    <path id="Path_1644" data-name="Path 1644" d="M0,8.545V52.629a14.871,14.871,0,0,0,2.327-2.155l5.588-4.905A24.662,24.662,0,0,1,42.894,13.3a10.829,10.829,0,0,1,.974-.858A21.655,21.655,0,0,0,46.6,9.946c1.772-1.8,3.975-3.119,5.326-5.135C39.109-1.974,18.9-1.309,5.975,5.183,3.787,6.281,2.065,7.453,0,8.546Z" transform="translate(-508.058 490.264)" fill="#2d002b" fill-rule="evenodd"/>
    <path id="Path_1645" data-name="Path 1645" d="M308.582,436.951c.313.347,3.326,6.408,3.363,6.68l-6.658.006c.039-.417,2.872-5.875,3.3-6.686Zm-17.106.023a67.922,67.922,0,0,1,3.3,6.674l-6.662-.012c.063-.3,3.173-6.479,3.36-6.662Zm6.187,9.672c-.453.443.472,1.984-1.733,2.752-.492.172-.4-.211-.388,1.843h8.979c0-2.049.11-1.678-.469-1.861-1.967-.62-1.289-2.419-1.653-2.748a4.6,4.6,0,0,0-1.706-.073c.005-.111,1.149-12.2,1.435-12.706a17.3,17.3,0,0,1,2.814,1.545,8.783,8.783,0,0,0,3.408.773c-.468,1.171-2.56,5.091-3.4,6.811-.386.786-.243.469-.607.8.65,2.568,7.9,2.526,8.532,0l-.22-.181c-.368-.349-2.507-4.865-2.849-5.538a18.387,18.387,0,0,1-.935-1.9c1.562-1.1.435-2.129-.38-2.052-.974.093-.319,1.558-4.235-.854a7.556,7.556,0,0,0-8.45,0c-3.962,2.423-3.23.925-4.24.844-.822-.066-1.929,1-.365,2.057a40.076,40.076,0,0,1-1.954,3.928c-.025.048-1.863,3.952-2,3.65-.008-.017-.038.027-.054.045.742,2.6,7.846,2.613,8.538,0-.626-.537-.59-.787-1.132-1.85-.319-.626-.649-1.309-.949-1.884l-1.926-3.913c3.774-.01,4.642-2.018,6.3-2.279l1.359,12.678c-.493.037-1.387-.118-1.722.113Z" transform="translate(-778.072 84.146)" fill="#e0bc66" fill-rule="evenodd"/>
    <path id="Path_1646" data-name="Path 1646" d="M195.81,289.309c-.1.407-.705,1.5-.937,2.065a17.682,17.682,0,0,0-.728,2.182,17.17,17.17,0,0,0,1.383,12.3c.293.564.874,1.386,1.053,1.858l.239.239c.069.087.083.12.16.227a20.577,20.577,0,0,0,2.42,2.608l.4.434a5.068,5.068,0,0,0-2.536-.937,9.821,9.821,0,0,0-3.074.214,11.4,11.4,0,0,0,3.383,2.8,2.877,2.877,0,0,0,2.487.014c1.066-.664-.106-1.868-.208-2.065.807.479,1.49,1.075,2.413,1.62a23.826,23.826,0,0,0,5.627,2.211,15.318,15.318,0,0,1,2.977.953l-.288.148c-.024.01-.05.018-.074.028-.1.037-.2.065-.293.1A8.1,8.1,0,0,0,206.7,318.3c.537.3.867.222,1.17.688.672-.679.361-.733,1.778-1.606a9.3,9.3,0,0,1,2.235-1.008,9.254,9.254,0,0,1,2.3,1.044c1.345.847,1.017.827,1.718,1.571.352-.493.63-.365,1.173-.694-1.416-1.579-3.369-1.714-4.216-2.26.371-.224,4.853-1.486,6.016-1.92,2.9-1.085,3.1-1.712,5.043-2.86-.166.324-.14.191-.358.484a1.406,1.406,0,0,0-.246.539.928.928,0,0,0,.459,1.071c1.445.8,3.328-.411,4.335-1.329l1.47-1.509a9.962,9.962,0,0,0-3.173-.211,5.227,5.227,0,0,0-2.436.932c.108-.167.03-.051.152-.185.02-.022.083-.084.1-.105l.647-.606a10.194,10.194,0,0,0,.806-.843l1.512-1.768a13.093,13.093,0,0,1,.713-1.232,17.3,17.3,0,0,0,.4-16.456,21.679,21.679,0,0,0-2.662-3.918c-.328-.322-.248-.119-.417-.525,2.263,1.428,2.719-.91,1.753-2.553a10.527,10.527,0,0,0-3.015-3.055c-.059,2.816-.242,3.437,1.133,5.472-.6-.284-1.236-1.282-1.985-1.643a1.482,1.482,0,0,0-.432-1.7c-1.437-1.52-3.231-1.383-5.328-1.066.14.445,1.167,1.125,1.557,1.544a4.736,4.736,0,0,0,3.147,1.6c.829-.021.553-.5,1.545.391a6.158,6.158,0,0,1,1.181,1.2,2.831,2.831,0,0,0-2.666-.649,7.813,7.813,0,0,0-2.262,1.1,12.773,12.773,0,0,0,3.151,1.66c1.731.369,2.822-.477,1.82-2.06.322.175.242.17.477.448.135.159.234.228.375.393,1.389,1.622,3.564,5.342,3.641,7.205.574,1,.6,3.941.508,5.235a16.663,16.663,0,0,1-3.1,8.627,12.982,12.982,0,0,1-2.856,3.024c.149-.346.17-.252.374-.57.866-1.352.038-3.488-.636-4.23l-.551.722a10.023,10.023,0,0,0-1.29,2.288c-.339,1.245-.039,3.076,2.059,1.819l-.584.534a17.3,17.3,0,0,1-4.756,2.6,61.983,61.983,0,0,1-6.592,1.837,61.409,61.409,0,0,1-6.591-1.834,17.582,17.582,0,0,1-2.907-1.353,14.658,14.658,0,0,1-2.38-1.721c-.009-.036-.035-.041-.051-.063.471.281,1.3.728,1.823.185a2.382,2.382,0,0,0,.235-2,11.686,11.686,0,0,0-1.844-3.008c-.69.78-1.518,2.923-.593,4.283.218.322.184.158.331.516a11.842,11.842,0,0,1-2.316-2.3,16.944,16.944,0,0,1-2.242-17.371,19.537,19.537,0,0,1,3.389-5.13c.2-.2.05-.1.282-.2.15-.372.443-.49.808-.841,1.887-1.817.854-.033,3.237-1.019a6.274,6.274,0,0,0,1.8-1.3c.527-.577,1.079-.925,1.57-1.5-1.715-.785-6.523.014-5.772,2.73a6.15,6.15,0,0,0-1.033.8,3.929,3.929,0,0,1-.957.845c1.372-2,1.176-2.673,1.139-5.48a10.293,10.293,0,0,0-3.051,3.121c-.947,1.747-.392,3.858,1.788,2.49-.172.413-.089.2-.418.526-.691.688-2,2.83-2.323,3.192Z" transform="translate(-690.06 227.038)" fill="#2d002b" fill-rule="evenodd"/>
    <path id="Path_1647" data-name="Path 1647" d="M161.824,706.924l-.481-.492c-1.276-1.279-2.872-1.621-4.732-1.852.428,1.43,2.629,4.933,4.768,4.4,1.205-.3.655-1.35.446-2.059Z" transform="translate(-655.302 -172.168)" fill="#2d002b" fill-rule="evenodd"/>
    <path id="Path_1648" data-name="Path 1648" d="M750.687,706.889c-.2.693-.757,1.752.442,2.054,2.153.541,4.351-2.976,4.776-4.4-1.275.171-3.351.588-4.293,1.425Z" transform="translate(-1213.565 -172.13)" fill="#2d002b" fill-rule="evenodd"/>
    <path id="Path_1649" data-name="Path 1649" d="M794.292,610.4a11.8,11.8,0,0,0-3.159,1.856c-.514.488-2,2.344-.953,3.393.507.507,1.356.2,1.815-.111C793.41,614.579,794.094,612.145,794.292,610.4Z" transform="translate(-1250.636 -83.621)" fill="#2d002b" fill-rule="evenodd"/>
    <path id="Path_1650" data-name="Path 1650" d="M138.731,615.644c1.081-1.036-.471-2.941-.953-3.4a11.946,11.946,0,0,0-3.158-1.855,11.261,11.261,0,0,0,1.162,3.851c.326.627,1.878,2.429,2.95,1.4Z" transform="translate(-634.627 -83.611)" fill="#2d002b" fill-rule="evenodd"/>
    <path id="Path_1651" data-name="Path 1651" d="M137.71,514.07c-.136,1.578-.383,4.7,1.071,5.836,1.921,1.506,2.869-1.222,1.327-3.457-.164-.237-.346-.428-.516-.646a4.236,4.236,0,0,0-.642-.615C138.544,514.8,138.234,514.173,137.71,514.07Z" transform="translate(-637.432 6.948)" fill="#2d002b" fill-rule="evenodd"/>
    <path id="Path_1652" data-name="Path 1652" d="M798.584,422.711A13.7,13.7,0,0,0,796.9,425.8c-.849,2.7,1.213,4.78,2.352,2.637.842-1.584.038-4.59-.666-5.723Z" transform="translate(-1257.109 92.845)" fill="#2d002b" fill-rule="evenodd"/>
    <path id="Path_1653" data-name="Path 1653" d="M761.689,342.81a11.426,11.426,0,0,0-.809,3.892c.384,4.15,4.234,3.089,2.64-.9A10.853,10.853,0,0,0,761.689,342.81Z" transform="translate(-1223.426 167.966)" fill="#2d002b" fill-rule="evenodd"/>
    <path id="Path_1654" data-name="Path 1654" d="M810.171,514.03a10.955,10.955,0,0,0-2.36,2.327c-.566.781-1.258,2.759-.411,3.66.613.651,2.067.1,2.58-1.584a11.189,11.189,0,0,0,.19-4.4Z" transform="translate(-1266.799 6.986)" fill="#2d002b" fill-rule="evenodd"/>
    <path id="Path_1655" data-name="Path 1655" d="M190.318,348.344c.26-1.2.623-1.352.369-2.889a13.634,13.634,0,0,0-.736-2.685,9.851,9.851,0,0,0-2.153,4.012c-.279,1.413.436,3.1,1.763,2.358C190.022,348.882,190,348.692,190.318,348.344Z" transform="translate(-684.568 168.004)" fill="#2d002b" fill-rule="evenodd"/>
    <path id="Path_1656" data-name="Path 1656" d="M272.46,840.472c1.023.431,3.288,2.194,5.329,1.673,2.4-.612,1.27-2.978-1.71-2.861a8.154,8.154,0,0,0-1.954.451A5.644,5.644,0,0,0,272.46,840.472Z" transform="translate(-764.223 -298.813)" fill="#2d002b" fill-rule="evenodd"/>
    <path id="Path_1657" data-name="Path 1657" d="M622.689,840.936a6.7,6.7,0,0,0-1.7-.721c-4.586-1.529-6.347,1.8-3.518,2.451,1.616.371,4.083-.88,5.218-1.729Z" transform="translate(-1087.317 -299.318)" fill="#2d002b" fill-rule="evenodd"/>
    <path id="Path_1658" data-name="Path 1658" d="M154.638,422.32a17.2,17.2,0,0,0-.969,3.749c-.076,1.2.458,3.139,1.769,2.847,1.09-.243,1.328-2.24.943-3.487a12.122,12.122,0,0,0-1.154-2.329,2.054,2.054,0,0,0-.589-.779Z" transform="translate(-652.53 93.211)" fill="#2d002b" fill-rule="evenodd"/>
    <path id="Path_1659" data-name="Path 1659" d="M238.361,418.262a5.131,5.131,0,0,0-3.454-.35c-.688.275-2.063,1.39-1.518,2.505a1.32,1.32,0,0,0,1.438.524C236.185,420.743,237.994,418.861,238.361,418.262Z" transform="translate(-727.371 97.508)" fill="#2d002b" fill-rule="evenodd"/>
    <path id="Path_1660" data-name="Path 1660" d="M603.574,757.37a17.164,17.164,0,0,0-2.3,1.936c-2.221,2.68.761,4.4,2.28,1.6.558-1.027.161-2.45.019-3.538Z" transform="translate(-1072.627 -221.801)" fill="#2d002b" fill-rule="evenodd"/>
    <path id="Path_1661" data-name="Path 1661" d="M680.831,418.462a15.384,15.384,0,0,0,2.051,2.019c.633.53,2.377,1.159,2.911.128.559-1.078-.8-2.194-1.441-2.469a5.217,5.217,0,0,0-3.521.322Z" transform="translate(-1148.17 97.309)" fill="#2d002b" fill-rule="evenodd"/>
    <path id="Path_1662" data-name="Path 1662" d="M342.955,757.35a5.265,5.265,0,0,0-.043,3.537c.291.546,1.549,2.058,2.658,1.2.938-.726.059-2.292-.424-2.854l-1.124-1c-.314-.246-.807-.632-1.066-.88Z" transform="translate(-830.192 -221.782)" fill="#2d002b" fill-rule="evenodd"/>
    <path id="Path_1663" data-name="Path 1663" d="M204.58,537.2a6.075,6.075,0,0,0-2.919,1.209c-1.57,1.553-.728,4.188,1.032,3.062C203.852,540.73,204.337,538.606,204.58,537.2Z" transform="translate(-696.88 -14.798)" fill="#2d002b" fill-rule="evenodd"/>
    <path id="Path_1664" data-name="Path 1664" d="M276.6,365c-.288.413-.8,1.07-.288,1.712a2.19,2.19,0,0,0,1.959.437,11.868,11.868,0,0,0,3.23-1.682c-2.076-1.37-3.154-1.6-4.9-.466Z" transform="translate(-767.639 147.781)" fill="#2d002b" fill-rule="evenodd"/>
    <path id="Path_1665" data-name="Path 1665" d="M720.262,479.6c-.216-.287-.269-.6-.578-.971a2.291,2.291,0,0,0-.919-.731,7.366,7.366,0,0,0-3-.354c.469,1.216,1.962,3.9,3.624,3.72C720.243,481.175,720.268,480.439,720.262,479.6Z" transform="translate(-1181.011 41.299)" fill="#2d002b" fill-rule="evenodd"/>
    <path id="Path_1666" data-name="Path 1666" d="M211.9,476.88a4.81,4.81,0,0,0-3.438.547c-.494.38-1.7,1.887-.786,2.823.9.919,2.352-.373,2.688-.825.6-.8,1.006-1.708,1.537-2.545Z" transform="translate(-702.999 42.021)" fill="#2d002b" fill-rule="evenodd"/>
    <path id="Path_1667" data-name="Path 1667" d="M243.9,659.51a7.736,7.736,0,0,0-1.713,2.427,2.5,2.5,0,0,0,.992,2.862c1.245.573,1.794-1.069,1.7-2.195a11.475,11.475,0,0,0-.974-3.094Z" transform="translate(-735.65 -129.794)" fill="#2d002b" fill-rule="evenodd"/>
    <path id="Path_1668" data-name="Path 1668" d="M215.422,599.13a6.509,6.509,0,0,0-2.34,1.767c-1.64,2.206,1.053,5.183,2.211,1.916A12.425,12.425,0,0,0,215.422,599.13Z" transform="translate(-707.912 -73.025)" fill="#2d002b" fill-rule="evenodd"/>
    <path id="Path_1669" data-name="Path 1669" d="M711.121,659.5a4.822,4.822,0,0,0-.586,1.556,6.9,6.9,0,0,0-.393,1.636c-.054,1.1.479,2.655,1.7,2.1a2.505,2.505,0,0,0,.962-2.937,8.2,8.2,0,0,0-1.686-2.354Z" transform="translate(-1175.726 -129.784)" fill="#2d002b" fill-rule="evenodd"/>
    <path id="Path_1670" data-name="Path 1670" d="M736.42,537.14a16.1,16.1,0,0,0,.854,3.139c.651,1.215,1.917,1.8,2.52,1.088a2.151,2.151,0,0,0,.242-1.724C739.656,538.032,737.968,537.45,736.42,537.14Z" transform="translate(-1200.436 -14.742)" fill="#2d002b" fill-rule="evenodd"/>
    <path id="Path_1671" data-name="Path 1671" d="M737.99,601.04a3.751,3.751,0,0,0,.8,2.855c.788.783,1.691.306,1.983-.632.619-1.987-1.38-3.608-2.722-4.083l-.06,1.86Z" transform="translate(-1201.912 -73.072)" fill="#2d002b" fill-rule="evenodd"/>
    <text id="COURT_OF_APPEAL_REPORTS_NIGERIA" data-name="COURT OF APPEAL
REPORTS NIGERIA" transform="translate(-437 521)" stroke="#000" stroke-width="0.5" font-size="17" font-family="SegoeUI-Bold, Segoe UI" font-weight="700"><tspan x="0" y="0">COURT OF APPEAL</tspan><tspan x="0" y="16">REPORTS NIGERIA</tspan></text>
  </g>
</svg>
