<svg xmlns="http://www.w3.org/2000/svg" width="128" height="128" viewBox="0 0 128 128">
  <g id="ICO" transform="translate(-1549 3537)">
    <rect id="Rectangle_1884" data-name="Rectangle 1884" width="128" height="128" transform="translate(1549 -3537)" fill="none"/>
    <path id="Path_1643" data-name="Path 1643" d="M130.521,252.706,118.69,263.552l23.395,16.019c1.929,1.284,2.972,2.217,4.9,3.5,1.788,1.192,2.894,1.952,4.56,3.2,6.349,4.737,3.869,4.281,18.191-5.267l39.415-26.493c0-13.07.646-24.2.646-36.831V180.2c-6.382,4.273-11.088,10.4-17,15.2a42.651,42.651,0,0,1-62.274,57.306Z" transform="translate(1454.883 -3698.209)" fill="#2d002b" fill-rule="evenodd"/>
    <path id="Path_1644" data-name="Path 1644" d="M0,14.772V91.017A25.719,25.719,0,0,0,4.025,87.29l9.665-8.484a42.654,42.654,0,0,1,60.5-55.816,18.726,18.726,0,0,1,1.685-1.484A37.455,37.455,0,0,0,80.6,17.195c3.065-3.112,6.876-5.4,9.211-8.882C67.641-3.421,32.689-2.271,10.334,8.956,6.551,10.856,3.572,12.883,0,14.773Z" transform="translate(1561.296 -3536.658)" fill="#2d002b" fill-rule="evenodd"/>
    <path id="Path_1645" data-name="Path 1645" d="M324.189,440.591c.542.6,5.752,11.083,5.816,11.554l-11.516.01c.068-.722,4.968-10.161,5.7-11.564Zm-29.586.039a117.448,117.448,0,0,1,5.712,11.544l-11.523-.021c.109-.522,5.489-11.205,5.811-11.522Zm10.7,16.728c-.783.766.816,3.432-3,4.76-.851.3-.688-.364-.67,3.187h15.53c.006-3.545.19-2.9-.811-3.218-3.4-1.073-2.229-4.183-2.859-4.753-.606-.345-2.107-.139-2.95-.126.009-.191,1.988-21.1,2.481-21.975,1.726.489,3.309,1.882,4.867,2.672,2.277,1.154,3.287.938,5.9,1.337-.81,2.025-4.427,8.8-5.887,11.779-.667,1.36-.42.811-1.05,1.383,1.124,4.442,13.67,4.369,14.757,0l-.381-.313c-.636-.6-4.336-8.415-4.928-9.578a31.845,31.845,0,0,1-1.617-3.293c2.7-1.9.753-3.682-.658-3.549-1.685.16-.552,2.694-7.324-1.477a13.069,13.069,0,0,0-14.615.006c-6.853,4.19-5.587,1.6-7.333,1.46-1.421-.115-3.336,1.733-.632,3.558a69.32,69.32,0,0,1-3.38,6.794c-.042.084-3.222,6.835-3.46,6.313-.013-.03-.066.047-.093.078,1.283,4.5,13.571,4.519,14.768,0-1.082-.929-1.02-1.361-1.958-3.2-.552-1.083-1.122-2.264-1.641-3.26l-3.331-6.768c6.527-.018,8.029-3.491,10.9-3.942l2.35,21.927c-.854.064-2.4-.2-2.979.2Z" transform="translate(1303.813 -3923.93)" fill="#ce6d0d" fill-rule="evenodd"/>
    <path id="Path_1646" data-name="Path 1646" d="M197.438,296.115c-.172.7-1.22,2.6-1.621,3.572a30.6,30.6,0,0,0-1.259,3.774,29.7,29.7,0,0,0,2.393,21.28c.507.975,1.512,2.4,1.822,3.213l.414.414c.12.15.144.207.277.393a35.581,35.581,0,0,0,4.186,4.51l.7.751c-1.489-.783-2.22-1.485-4.387-1.62-1.119-.069-4.546-.1-5.317.37a19.718,19.718,0,0,0,5.851,4.835,4.977,4.977,0,0,0,4.3.024c1.844-1.149-.184-3.231-.359-3.572,1.4.829,2.578,1.859,4.173,2.8a41.215,41.215,0,0,0,9.732,3.824c1.537.452,3.981.929,5.148,1.649l-.5.257c-.041.017-.086.032-.127.049-.168.064-.344.112-.507.165-2.214.739-4.622,1.775-6.083,3.446.929.523,1.5.384,2.023,1.189,1.162-1.174.624-1.267,3.075-2.777a16.082,16.082,0,0,1,3.865-1.743,16,16,0,0,1,3.97,1.8c2.326,1.465,1.758,1.43,2.971,2.717.609-.853,1.09-.631,2.029-1.2-2.449-2.731-5.827-2.965-7.291-3.909.641-.388,8.394-2.57,10.4-3.321,5.024-1.877,5.356-2.961,8.723-4.946-.286.56-.242.331-.618.838a2.433,2.433,0,0,0-.426.933,1.6,1.6,0,0,0,.794,1.852c2.5,1.378,5.756-.712,7.5-2.3l2.543-2.611c-.755-.482-4.365-.448-5.489-.365-2.028.148-2.834.9-4.214,1.611.186-.288.052-.088.263-.321.034-.038.143-.146.178-.182l1.119-1.049a17.615,17.615,0,0,0,1.393-1.457l2.615-3.059a22.651,22.651,0,0,1,1.234-2.131,29.922,29.922,0,0,0,.692-28.461,37.5,37.5,0,0,0-4.6-6.776c-.567-.558-.429-.206-.722-.908,3.914,2.47,4.7-1.573,3.032-4.416a18.2,18.2,0,0,0-5.214-5.284c-.1,4.871-.419,5.944,1.96,9.464-1.032-.491-2.138-2.217-3.433-2.842a2.564,2.564,0,0,0-.747-2.947c-2.485-2.629-5.588-2.393-9.215-1.843.242.769,2.018,1.946,2.694,2.67,1.185,1.272,3.394,2.818,5.443,2.765,1.434-.036.957-.865,2.673.676a10.641,10.641,0,0,1,2.043,2.07c-1.261-.887-2.5-1.7-4.611-1.123a13.516,13.516,0,0,0-3.913,1.9,22.1,22.1,0,0,0,5.45,2.871c2.994.638,4.881-.825,3.148-3.564.557.3.418.295.826.775.234.275.405.4.648.68,2.4,2.806,6.164,9.239,6.3,12.462.993,1.726,1.041,6.816.879,9.054a28.821,28.821,0,0,1-5.369,14.921,22.453,22.453,0,0,1-4.939,5.23c.258-.6.295-.435.646-.987,1.5-2.339.066-6.034-1.1-7.316l-.954,1.248a17.333,17.333,0,0,0-2.231,3.958c-.585,2.153-.068,5.32,3.561,3.147l-1.009.924a29.922,29.922,0,0,1-8.227,4.493c-1.529.547-10.232,3.182-11.4,3.176-1.252-.005-9.861-2.631-11.4-3.172a30.42,30.42,0,0,1-5.027-2.341c-.359-.2-4.009-2.534-4.117-2.976-.015-.063-.061-.07-.088-.109.815.486,2.254,1.259,3.154.32.671-.7.718-2.314.407-3.465a20.212,20.212,0,0,0-3.189-5.2c-1.193,1.349-2.625,5.055-1.026,7.407.378.556.319.273.572.893a20.491,20.491,0,0,1-4.006-3.98,29.305,29.305,0,0,1-3.878-30.044A33.8,33.8,0,0,1,202.5,290.3c.343-.34.087-.165.488-.347.26-.643.766-.847,1.4-1.455,3.263-3.142,1.477-.057,5.6-1.763a10.853,10.853,0,0,0,3.117-2.246c.912-1,1.867-1.6,2.715-2.6-2.966-1.357-11.282.025-9.983,4.722A10.635,10.635,0,0,0,204.045,288a6.8,6.8,0,0,1-1.656,1.461c2.373-3.461,2.034-4.624,1.97-9.478a17.8,17.8,0,0,0-5.277,5.4c-1.639,3.021-.678,6.673,3.092,4.306-.3.715-.154.345-.723.91-1.2,1.19-3.453,4.895-4.017,5.52Z" transform="translate(1387.741 -3787.669)" fill="#2d002b" fill-rule="evenodd"/>
    <path id="Path_1647" data-name="Path 1647" d="M165.628,708.634l-.833-.851c-2.207-2.213-4.968-2.8-8.185-3.2.74,2.473,4.547,8.532,8.246,7.616,2.084-.516,1.133-2.335.772-3.561Z" transform="translate(1420.886 -4168.349)" fill="#2d002b" fill-rule="evenodd"/>
    <path id="Path_1648" data-name="Path 1648" d="M750.908,708.6c-.338,1.2-1.309,3.031.764,3.553,3.724.936,7.526-5.147,8.26-7.615-2.205.3-5.8,1.017-7.425,2.465Z" transform="translate(888.531 -4168.313)" fill="#2d002b" fill-rule="evenodd"/>
    <path id="Path_1649" data-name="Path 1649" d="M797.56,610.4a20.414,20.414,0,0,0-5.464,3.211c-.889.844-3.465,4.054-1.649,5.869.876.876,2.345.345,3.139-.192C796.035,617.629,797.218,613.419,797.56,610.4Z" transform="translate(853.18 -4083.912)" fill="#2d002b" fill-rule="evenodd"/>
    <path id="Path_1650" data-name="Path 1650" d="M141.73,619.478c1.87-1.793-.814-5.087-1.649-5.879a20.657,20.657,0,0,0-5.462-3.209,19.478,19.478,0,0,0,2.01,6.661c.564,1.084,3.249,4.2,5.1,2.427Z" transform="translate(1440.601 -4083.902)" fill="#2d002b" fill-rule="evenodd"/>
    <path id="Path_1651" data-name="Path 1651" d="M137.787,514.07c-.236,2.73-.663,8.121,1.853,10.094,3.322,2.605,4.963-2.114,2.3-5.98-.283-.41-.6-.74-.892-1.118A7.33,7.33,0,0,0,139.933,516C139.229,515.336,138.693,514.249,137.787,514.07Z" transform="translate(1437.926 -3997.544)" fill="#2d002b" fill-rule="evenodd"/>
    <path id="Path_1652" data-name="Path 1652" d="M799.959,422.711a23.673,23.673,0,0,0-2.915,5.336c-1.469,4.667,2.1,8.268,4.067,4.561,1.456-2.74.065-7.939-1.152-9.9Z" transform="translate(847.007 -3915.635)" fill="#2d002b" fill-rule="evenodd"/>
    <path id="Path_1653" data-name="Path 1653" d="M762.284,342.81a19.755,19.755,0,0,0-1.4,6.731c.664,7.177,7.323,5.342,4.567-1.564A18.768,18.768,0,0,0,762.284,342.81Z" transform="translate(879.126 -3843.999)" fill="#2d002b" fill-rule="evenodd"/>
    <path id="Path_1654" data-name="Path 1654" d="M812.482,514.03c-.762.157-3.522,3.252-4.082,4.025-.979,1.351-2.175,4.772-.711,6.331,1.06,1.126,3.575.165,4.462-2.739.79-2.587.546-4.923.329-7.616Z" transform="translate(837.766 -3997.509)" fill="#2d002b" fill-rule="evenodd"/>
    <path id="Path_1655" data-name="Path 1655" d="M192.2,352.41c.449-2.07,1.078-2.339.638-5a23.576,23.576,0,0,0-1.273-4.643,17.038,17.038,0,0,0-3.724,6.939c-.483,2.444.754,5.357,3.049,4.077C191.689,353.341,191.643,353.013,192.2,352.41Z" transform="translate(1392.978 -3843.963)" fill="#2d002b" fill-rule="evenodd"/>
    <path id="Path_1656" data-name="Path 1656" d="M272.46,841.343c1.769.745,5.687,3.794,9.216,2.894,4.151-1.059,2.2-5.15-2.957-4.948a14.111,14.111,0,0,0-3.379.78A9.767,9.767,0,0,0,272.46,841.343Z" transform="translate(1317.019 -4289.117)" fill="#2d002b" fill-rule="evenodd"/>
    <path id="Path_1657" data-name="Path 1657" d="M627.492,841.753a11.593,11.593,0,0,0-2.941-1.248c-7.932-2.644-10.978,3.116-6.085,4.239,2.795.641,7.062-1.522,9.025-2.991Z" transform="translate(1008.919 -4289.599)" fill="#2d002b" fill-rule="evenodd"/>
    <path id="Path_1658" data-name="Path 1658" d="M155.35,422.32c-.535,2.153-1.5,3.715-1.676,6.483-.131,2.082.792,5.428,3.06,4.924,1.885-.42,2.3-3.875,1.63-6.03a20.959,20.959,0,0,0-2-4.029,3.552,3.552,0,0,0-1.019-1.347Z" transform="translate(1423.529 -3915.285)" fill="#2d002b" fill-rule="evenodd"/>
    <path id="Path_1659" data-name="Path 1659" d="M242.081,418.637a8.875,8.875,0,0,0-5.975-.605c-1.191.475-3.569,2.4-2.626,4.333a2.283,2.283,0,0,0,2.488.906C238.315,422.926,241.445,419.672,242.081,418.637Z" transform="translate(1352.161 -3911.188)" fill="#2d002b" fill-rule="evenodd"/>
    <path id="Path_1660" data-name="Path 1660" d="M605.831,757.37a29.683,29.683,0,0,0-3.975,3.348c-3.841,4.635,1.316,7.607,3.943,2.772.965-1.776.279-4.238.032-6.119Z" transform="translate(1022.927 -4215.679)" fill="#2d002b" fill-rule="evenodd"/>
    <path id="Path_1661" data-name="Path 1661" d="M680.831,418.827a26.605,26.605,0,0,0,3.548,3.492c1.094.917,4.111,2,5.034.221.966-1.865-1.383-3.794-2.493-4.271a9.025,9.025,0,0,0-6.091.558Z" transform="translate(950.891 -3911.378)" fill="#2d002b" fill-rule="evenodd"/>
    <path id="Path_1662" data-name="Path 1662" d="M343.2,757.351c-.646,1.544-.841,4.677-.075,6.117.5.945,2.679,3.559,4.6,2.075,1.622-1.256.1-3.965-.733-4.936l-1.945-1.733c-.543-.425-1.4-1.093-1.844-1.523Z" transform="translate(1254.112 -4215.661)" fill="#2d002b" fill-rule="evenodd"/>
    <path id="Path_1663" data-name="Path 1663" d="M207.314,537.2a10.512,10.512,0,0,0-5.049,2.091c-2.716,2.686-1.26,7.244,1.785,5.3C206.055,543.3,206.893,539.632,207.314,537.2Z" transform="translate(1381.237 -4018.283)" fill="#2d002b" fill-rule="evenodd"/>
    <path id="Path_1664" data-name="Path 1664" d="M276.968,365.531c-.5.715-1.383,1.85-.5,2.96.61.765,2.114.983,3.389.755a20.529,20.529,0,0,0,5.586-2.91c-3.59-2.369-5.454-2.766-8.476-.806Z" transform="translate(1313.762 -3863.249)" fill="#2d002b" fill-rule="evenodd"/>
    <path id="Path_1665" data-name="Path 1665" d="M723.546,481.111c-.375-.5-.465-1.04-1-1.68a3.962,3.962,0,0,0-1.59-1.265,12.743,12.743,0,0,0-5.2-.612c.812,2.1,3.393,6.738,6.268,6.434C723.514,483.831,723.557,482.557,723.546,481.111Z" transform="translate(919.574 -3964.789)" fill="#2d002b" fill-rule="evenodd"/>
    <path id="Path_1666" data-name="Path 1666" d="M215.222,476.963a8.321,8.321,0,0,0-5.947.945c-.854.657-2.938,3.265-1.36,4.882,1.55,1.589,4.067-.645,4.649-1.426,1.034-1.389,1.74-2.954,2.658-4.4Z" transform="translate(1375.402 -3964.1)" fill="#2d002b" fill-rule="evenodd"/>
    <path id="Path_1667" data-name="Path 1667" d="M245.238,659.511a13.377,13.377,0,0,0-2.964,4.2c-.665,1.992.39,4.339,1.715,4.949,2.153.992,3.1-1.849,2.934-3.8-.057-.654-1.1-4.8-1.684-5.352Z" transform="translate(1344.267 -4127.942)" fill="#2d002b" fill-rule="evenodd"/>
    <path id="Path_1668" data-name="Path 1668" d="M217.505,599.13a11.26,11.26,0,0,0-4.047,3.057c-2.836,3.814,1.822,8.965,3.824,3.313C217.871,603.837,217.543,600.989,217.505,599.13Z" transform="translate(1370.717 -4073.807)" fill="#2d002b" fill-rule="evenodd"/>
    <path id="Path_1669" data-name="Path 1669" d="M711.838,659.5c-.52.5-.771,1.983-1.012,2.692a11.919,11.919,0,0,0-.681,2.83c-.093,1.9.828,4.591,2.945,3.628,1.4-.638,2.378-3.064,1.665-5.08a14.18,14.18,0,0,0-2.916-4.071Z" transform="translate(924.614 -4127.933)" fill="#2d002b" fill-rule="evenodd"/>
    <path id="Path_1670" data-name="Path 1670" d="M736.419,537.14a27.831,27.831,0,0,0,1.477,5.43c1.127,2.1,3.315,3.116,4.358,1.882a3.721,3.721,0,0,0,.418-2.982C742.017,538.683,739.1,537.676,736.419,537.14Z" transform="translate(901.051 -4018.229)" fill="#2d002b" fill-rule="evenodd"/>
    <path id="Path_1671" data-name="Path 1671" d="M737.99,602.4c.01,2,.123,3.682,1.384,4.937,1.363,1.355,2.924.528,3.429-1.092,1.071-3.437-2.387-6.24-4.708-7.062Z" transform="translate(899.643 -4073.851)" fill="#2d002b" fill-rule="evenodd"/>
  </g>
</svg>
