<?xml version="1.0" encoding="UTF-8"?>
<!DOCTYPE svg PUBLIC "-//W3C//DTD SVG 1.1//EN" "http://www.w3.org/Graphics/SVG/1.1/DTD/svg11.dtd">
<!-- Creator: CorelDRAW 2019 (64-Bit) -->
<svg xmlns="http://www.w3.org/2000/svg" xml:space="preserve" width="3.32866in" height="1.27088in" version="1.1" style="shape-rendering:geometricPrecision; text-rendering:geometricPrecision; image-rendering:optimizeQuality; fill-rule:evenodd; clip-rule:evenodd"
viewBox="0 0 3322.12 1268.38"
 xmlns:xlink="http://www.w3.org/1999/xlink">
 <defs>
  <style type="text/css">
   <![CDATA[
    .fil0 {fill:#F7933A}
    .fil1 {fill:white}
    .fil2 {fill:white}
   ]]>
  </style>
 </defs>
 <g id="Layer_x0020_1">
  <metadata id="CorelCorpID_0Corel-Layer"/>
  <g id="_2687946544336">
   <path class="fil0" d="M32.13 914.16c26.18,15.33 34.32,20.9 64.72,34.6 163.67,73.76 335.55,186.22 331.82,319.63 41.61,-10.79 114.33,-81.58 134.18,-115.91 88.54,-153.16 -151.08,-244.65 -261.5,-317.45 -19.9,-13.12 -63.09,-35.49 -96.13,-44.67 -29.66,34.04 -136.87,93.39 -173.12,123.8l0.01 -0z"/>
   <path class="fil0" d="M736.83 432.7c62.32,-37.8 124.83,-81.69 177.6,-120.62 -67.91,-57.45 -319.99,-135.95 -338.66,-312.08 -43.51,19.02 -90.99,78.4 -107.55,106.29 -28.18,47.47 -35.01,94.76 -4.55,143.65 40.16,64.46 211.1,167.58 273.16,182.75l-0 0z"/>
   <path class="fil1" d="M130.09 328.62c-70.31,35.11 -150.95,150.14 -125.17,227.37 65.2,195.3 641.77,269.03 646.68,547.16 45.16,-16.78 127.78,-91.53 145.63,-140.24 29.62,-80.82 -42.64,-157.36 -120.7,-205.32 -221.51,-128.91 -505.44,-237.73 -546.44,-428.97z"/>
   <path class="fil1" d="M787.9 768.06c68.17,66.3 68.95,80.85 88.55,168.51 110.75,-58.1 205.65,-168.49 112.38,-269.59 -51.19,-55.49 -172.65,-130 -251.99,-169.6 -181.7,-90.66 -368.76,-189.98 -382.86,-334.49 -71.83,33.42 -164.26,156.03 -118.49,244.27 67.81,130.76 426.48,238.42 552.42,360.89l0 0z"/>
   <path class="fil2" d="M1182.42 530.9l50.65 -9.32c4.26,14.72 15.16,22.08 32.79,22.08 13.68,0 20.53,-3.72 20.53,-11.17 0,-3.9 -1.6,-6.95 -4.75,-9.09 -3.16,-2.18 -8.8,-4.13 -16.97,-5.77 -31.1,-6.09 -51.09,-14.08 -59.93,-23.89 -8.84,-9.86 -13.24,-21.44 -13.24,-34.75 0,-17.12 6.36,-31.39 19.06,-42.75 12.71,-11.36 30.97,-17.03 54.82,-17.03 36.16,0 60.03,14.86 71.66,44.61l-45.05 13.99c-4.7,-12.17 -14.22,-18.26 -28.52,-18.26 -11.91,0 -17.86,3.77 -17.86,11.32 0,3.36 1.34,6 4.04,7.86 2.67,1.87 7.86,3.59 15.6,5.27 21.28,4.49 36.39,8.5 45.31,11.99 8.93,3.45 16.39,9.5 22.35,18.12 5.96,8.59 8.93,18.72 8.93,30.39 0,18.4 -7.28,33.34 -21.86,44.79 -14.57,11.45 -33.71,17.17 -57.4,17.17 -43.27,0 -70.02,-18.54 -80.15,-55.56l-0.01 -0z"/>
   <polygon id="_1" class="fil2" points="1496.56,540.4 1496.56,583.73 1362.74,583.73 1362.74,401.94 1496.56,401.94 1496.56,443.91 1416.33,443.91 1416.33,470.35 1481.1,470.35 1481.1,510.69 1416.33,510.69 1416.33,540.4 "/>
   <polygon id="_2" class="fil2" points="1591.05,445.55 1591.05,583.73 1539.34,583.73 1539.34,445.55 1502.55,445.55 1502.55,401.94 1627.84,401.94 1627.84,445.55 "/>
   <polygon id="_3" class="fil2" points="1793.94,401.94 1793.94,583.73 1739.3,583.73 1739.3,513.13 1697.98,513.13 1697.98,583.73 1643.34,583.73 1643.34,401.94 1697.98,401.94 1697.98,468.99 1739.3,468.99 1739.3,401.94 "/>
   <polygon id="_4" class="fil2" points="2084.8,401.94 2084.8,583.73 2034.15,583.73 2034.15,453.72 2001.06,583.73 1966.44,583.73 1932.33,453.72 1932.33,583.73 1891.54,583.73 1891.54,401.94 1962.67,401.94 1988.44,498.52 2013.05,401.94 "/>
   <polygon id="_5" class="fil2" points="2170.31,401.94 2170.31,583.73 2115.67,583.73 2115.67,401.94 "/>
   <path id="_6" class="fil2" d="M2353.13 583.73l-44.52 0 -48.87 -80.18c-6.31,-10.31 -12.48,-22.85 -18.62,-37.75 2.89,11.72 4.31,21.67 4.31,29.84l0 88.07 -44.25 0 0 -181.79 51.45 0 41.45 66.6c8.26,13.22 14.49,24.9 18.7,34.94 -2.8,-15.54 -4.18,-31.43 -4.18,-47.7l0 -53.83 44.52 0 0 181.79 0 0z"/>
   <polygon id="_7" class="fil2" points="2438.7,401.94 2438.7,583.73 2384.05,583.73 2384.05,401.94 "/>
   <path id="_8" class="fil2" d="M2621.5 583.73l-44.52 0 -48.87 -80.18c-6.31,-10.31 -12.49,-22.85 -18.62,-37.75 2.9,11.72 4.31,21.67 4.31,29.84l0 88.07 -44.25 0 0 -181.79 51.44 0 41.45 66.6c8.26,13.22 14.49,24.9 18.7,34.94 -2.8,-15.54 -4.18,-31.43 -4.18,-47.7l0 -53.83 44.52 0 0 181.79 0.01 0z"/>
   <path id="_9" class="fil2" d="M2805.96 481.8l0 101.94 -26.65 0c-2.18,-7.54 -4.53,-13.9 -7.15,-19.08 -11.01,14.54 -27.38,21.81 -49,21.81 -22.92,0 -41.8,-8.18 -56.56,-24.58 -14.79,-16.35 -22.17,-38.51 -22.17,-66.46 0,-27.17 7.15,-49.97 21.42,-68.45 14.3,-18.49 35.54,-27.76 63.8,-27.76 21.19,0 38.26,5.5 51.18,16.48 12.93,11.04 21.32,26.62 25.15,46.88l-52.78 5.32c-2.62,-18.9 -10.79,-28.35 -24.48,-28.35 -18,0 -26.96,17.39 -26.96,52.19 0,21.03 2.89,34.89 8.62,41.61 5.78,6.67 12.72,10.04 20.93,10.04 6.62,0 12.26,-2.05 16.92,-6.14 4.66,-4.08 7.02,-9.67 7.1,-16.76l-29.58 0 0 -38.7 80.23 0 -0.02 0z"/>
   <path id="_10" class="fil2" d="M1298.37 785.03l49.84 3.05c-2.36,22.21 -10.39,39.25 -24.12,51.1 -13.72,11.86 -30.61,17.81 -50.65,17.81 -24.12,0 -43.58,-8.18 -58.37,-24.49 -14.84,-16.3 -22.26,-38.88 -22.26,-67.59 0,-28.48 7.02,-51.47 21.06,-68.95 14.04,-17.48 33.63,-26.21 58.77,-26.21 23.5,0 41.58,6.63 54.2,19.9 12.57,13.26 19.72,30.89 21.37,52.78l-50.92 2.82c0,-12.13 -2.27,-20.85 -6.8,-26.26 -4.53,-5.41 -9.91,-8.09 -16.04,-8.09 -17.1,0 -25.67,17.67 -25.67,53.05 0,19.8 2.22,33.3 6.66,40.39 4.48,7.13 10.75,10.67 18.79,10.67 14.35,0 22.39,-9.99 24.12,-29.98l0.01 0z"/>
   <path id="_11" class="fil2" d="M1526.41 854.25l-60.47 0 -26.16 -69.5 -16.79 0 0 69.5 -54.64 0 0 -181.79 92.85 0c20.48,0 36.39,4.9 47.72,14.72 11.33,9.81 16.97,22.75 16.97,38.84 0,10.49 -2.09,19.76 -6.26,27.8 -4.18,8.04 -12.62,15.13 -25.37,21.26l32.16 79.18 -0.02 0zm-103.43 -108.2l23.32 0c6.84,0 12.35,-1.45 16.53,-4.4 4.18,-2.96 6.26,-7.27 6.26,-12.99 0,-11.68 -6.97,-17.49 -20.97,-17.49l-25.15 0 0 34.89 0 -0z"/>
   <path id="_12" class="fil2" d="M1626.99 856.98c-25.01,0 -45.4,-8.5 -61.17,-25.44 -15.78,-16.95 -23.63,-39.61 -23.63,-68 0,-27.12 7.55,-49.56 22.61,-67.28 15.06,-17.67 35.98,-26.52 62.73,-26.52 24.75,0 44.95,8.36 60.55,25.03 15.6,16.67 23.37,38.93 23.37,66.78 0,28.84 -7.86,51.97 -23.59,69.37 -15.73,17.39 -35.98,26.07 -60.86,26.07l-0.01 -0zm-0.22 -41.16c9.25,0 15.91,-4.14 19.94,-12.36 4.04,-8.22 6.09,-23.26 6.09,-45.11 0,-31.66 -8.36,-47.47 -25.01,-47.47 -18,0 -26.96,18.04 -26.96,54.15 0,33.84 8.66,50.79 25.94,50.79z"/>
   <polygon id="_13" class="fil2" points="1952.37,672.47 1905.28,854.25 1859.47,854.25 1834.55,753.91 1811,854.25 1763.25,854.25 1716.2,672.47 1767.51,672.47 1792.26,776.89 1816.77,672.47 1859.47,672.47 1885.73,777.12 1910.61,672.47 "/>
   <path id="_14" class="fil2" d="M1969.65 854.25l0 -181.79 68.73 0c29.89,0 52.24,9.04 67.08,27.16 14.84,18.13 22.26,39.06 22.26,62.87 0,27.16 -7.95,49.24 -23.9,66.27 -15.91,16.99 -36.6,25.49 -62.02,25.49l-72.15 0 -0 0zm54.64 -41.7l14.22 0c9.02,0 16.66,-4.49 22.83,-13.49 6.22,-8.99 9.33,-21.21 9.33,-36.7 0,-13.26 -2.76,-24.72 -8.27,-34.35 -5.51,-9.58 -13.5,-14.4 -23.9,-14.4l-14.22 0 0 98.93 0.01 -0z"/>
   <polygon id="_15" class="fil2" points="2328.47,786.11 2270.36,786.11 2270.36,854.25 2217.32,854.25 2217.32,672.47 2345.81,672.47 2345.81,715.79 2270.36,715.79 2270.36,745.23 2328.47,745.23 "/>
   <path id="_16" class="fil2" d="M2507.29 672.47l0 120.33c0,22.8 -6.62,39.2 -19.86,49.2 -13.24,9.99 -30.52,14.99 -51.8,14.99 -22.43,0 -40.43,-4.81 -54.02,-14.4 -13.6,-9.58 -20.39,-25.17 -20.39,-46.83l0 -123.28 55.45 0 0 116.69c0,8.73 1.82,15.04 5.42,19.03 3.6,4 9.37,6 17.28,6 6.57,0 12,-1.45 16.22,-4.31 4.22,-2.91 6.75,-6.14 7.55,-9.81 0.84,-3.63 1.24,-10.72 1.24,-21.26l0 -106.34 42.91 0 0.01 0z"/>
   <path id="_17" class="fil2" d="M2688.23 854.25l-44.52 0 -48.87 -80.18c-6.31,-10.31 -12.49,-22.85 -18.62,-37.75 2.9,11.72 4.31,21.67 4.31,29.84l0 88.07 -44.25 0 0 -181.79 51.44 0 41.45 66.6c8.26,13.22 14.49,24.9 18.7,34.94 -2.8,-15.54 -4.18,-31.43 -4.18,-47.7l0 -53.83 44.52 0 0 181.79 0.01 0z"/>
   <path id="_18" class="fil2" d="M2719.16 854.25l0 -181.79 68.73 0c29.89,0 52.24,9.04 67.08,27.16 14.84,18.13 22.26,39.06 22.26,62.87 0,27.16 -7.95,49.24 -23.9,66.27 -15.91,16.99 -36.61,25.49 -62.02,25.49l-72.15 0 -0 0zm54.64 -41.7l14.22 0c9.02,0 16.66,-4.49 22.83,-13.49 6.22,-8.99 9.33,-21.21 9.33,-36.7 0,-13.26 -2.76,-24.72 -8.27,-34.35 -5.51,-9.58 -13.5,-14.4 -23.9,-14.4l-14.22 0 0 98.93 0.01 -0z"/>
   <polygon id="_19" class="fil2" points="2954.84,672.47 2954.84,854.25 2900.19,854.25 2900.19,672.47 "/>
   <path id="_20" class="fil2" d="M3137.65 854.25l-44.52 0 -48.87 -80.18c-6.31,-10.31 -12.49,-22.85 -18.62,-37.75 2.9,11.72 4.31,21.67 4.31,29.84l0 88.07 -44.25 0 0 -181.79 51.44 0 41.45 66.6c8.26,13.22 14.49,24.9 18.7,34.94 -2.8,-15.54 -4.18,-31.43 -4.18,-47.7l0 -53.83 44.52 0 0 181.79 0.01 0z"/>
   <path id="_21" class="fil2" d="M3322.1 752.32l0 101.94 -26.65 0c-2.18,-7.54 -4.53,-13.9 -7.15,-19.08 -11.01,14.54 -27.38,21.81 -49,21.81 -22.92,0 -41.8,-8.18 -56.56,-24.58 -14.79,-16.35 -22.17,-38.51 -22.17,-66.46 0,-27.17 7.15,-49.97 21.42,-68.45 14.3,-18.49 35.54,-27.76 63.8,-27.76 21.19,0 38.26,5.5 51.18,16.48 12.93,11.04 21.32,26.62 25.15,46.88l-52.78 5.32c-2.62,-18.9 -10.79,-28.35 -24.48,-28.35 -18,0 -26.96,17.39 -26.96,52.19 0,21.03 2.89,34.89 8.62,41.61 5.78,6.67 12.72,10.04 20.93,10.04 6.62,0 12.26,-2.05 16.92,-6.14 4.66,-4.08 7.02,-9.67 7.1,-16.76l-29.58 0 0 -38.7 80.23 0 -0.02 0z"/>
  </g>
 </g>
</svg>
