<svg xmlns="http://www.w3.org/2000/svg" width="1344.121" height="457.128" viewBox="0 0 1344.121 457.128">
  <g id="CAR_LOGO" data-name="CAR LOGO" transform="translate(508.058 -490.275)">
    <path id="Path_1643" data-name="Path 1643" d="M161.059,439.858,118.69,478.7l83.779,57.368c6.908,4.6,10.642,7.938,17.551,12.535,6.4,4.267,10.365,6.99,16.328,11.442,22.737,16.966,13.854,15.332,65.143-18.862L442.643,446.3c0-46.807,2.315-86.657,2.315-131.9V180.2c-22.855,15.3-39.706,37.239-60.887,54.434A152.738,152.738,0,0,1,161.059,439.858Z" transform="translate(-582.782 376.822)" fill="#2d002b" fill-rule="evenodd"/>
    <path id="Path_1644" data-name="Path 1644" d="M0,52.874V325.923c5.979-4.008,9.072-8.023,14.413-13.35L49.026,282.19A152.751,152.751,0,0,1,265.677,82.3a67.068,67.068,0,0,1,6.034-5.316c7.779-6.008,10.3-8.7,16.943-15.439C299.63,50.4,313.277,42.228,321.641,29.741c-79.408-42.021-204.579-37.9-284.632,2.3C23.459,38.85,12.791,46.11,0,52.878Z" transform="translate(-508.058 490.264)" fill="#2d002b" fill-rule="evenodd"/>
    <path id="Path_1645" data-name="Path 1645" d="M419.688,462.863c1.941,2.148,20.6,39.691,20.829,41.376l-41.24.037c.245-2.585,17.792-36.387,20.414-41.413ZM313.738,463c2.571,3.411,20.288,38.987,20.455,41.34l-41.266-.075c.389-1.87,19.655-40.128,20.811-41.261Zm38.321,59.906c-2.8,2.745,2.922,12.291-10.735,17.047-3.049,1.063-2.464-1.3-2.4,11.413h55.616c.022-12.694.682-10.394-2.9-11.524-12.183-3.841-7.983-14.98-10.238-17.021-2.171-1.237-7.546-.5-10.565-.452.033-.685,7.12-75.574,8.887-78.7,6.182,1.752,11.85,6.741,17.428,9.568,8.153,4.134,11.772,3.36,21.111,4.79-2.9,7.253-15.854,31.531-21.081,42.184-2.389,4.871-1.5,2.9-3.76,4.952,4.027,15.907,48.956,15.647,52.849,0l-1.363-1.122c-2.278-2.159-15.528-30.134-17.647-34.3-1.778-3.5-4.571-8.29-5.79-11.794,9.676-6.787,2.7-13.187-2.356-12.709-6.034.574-1.978,9.649-26.23-5.29-17.558-10.817-35.142-10.494-52.338.022-24.541,15.006-20.007,5.73-26.259,5.23-5.09-.411-11.946,6.2-2.263,12.743-2.067,6.234-8.824,17.88-12.106,24.329-.152.3-11.539,24.478-12.391,22.607-.048-.107-.237.167-.333.278,4.593,16.128,48.6,16.184,52.886,0-3.875-3.326-3.652-4.875-7.012-11.461-1.978-3.878-4.019-8.109-5.879-11.672l-11.928-24.237c23.374-.063,28.752-12.5,39.043-14.117l8.416,78.527c-3.056.23-8.594-.73-10.668.7Z" transform="translate(-688.865 218.319)" fill="#ce6d0d" fill-rule="evenodd"/>
    <path id="Path_1646" data-name="Path 1646" d="M207.4,337.763c-.615,2.523-4.367,9.294-5.8,12.791a109.521,109.521,0,0,0-4.508,13.516,106.348,106.348,0,0,0,8.568,76.208c1.815,3.493,5.416,8.587,6.523,11.505l1.482,1.482c.43.537.515.741.993,1.407,4.645,6.46,9.627,10.787,14.991,16.151l2.489,2.689c-5.331-2.8-7.949-5.319-15.71-5.8-4.008-.248-16.28-.348-19.04,1.326,4.323,5.538,14.157,14.3,20.955,17.314,4.534,2.011,11.142,2.741,15.4.085,6.6-4.115-.659-11.572-1.285-12.791,5,2.967,9.231,6.656,14.943,10.031,11.039,6.523,22.44,10.049,34.85,13.695,5.5,1.618,14.258,3.326,18.436,5.9l-1.782.919c-.148.063-.307.115-.456.174-.6.229-1.234.4-1.815.592-7.927,2.645-16.551,6.357-21.785,12.339,3.326,1.874,5.371,1.374,7.245,4.26,4.16-4.2,2.234-4.538,11.013-9.946,2.06-1.267,11.331-6.242,13.843-6.242,2.6,0,12.02,5.082,14.217,6.464,8.331,5.245,6.3,5.123,10.639,9.731,2.182-3.056,3.9-2.259,7.264-4.3-8.772-9.78-20.866-10.617-26.111-14,2.3-1.389,30.06-9.205,37.261-11.895,17.992-6.723,19.181-10.6,31.238-17.714-1.026,2-.867,1.186-2.215,3a8.71,8.71,0,0,0-1.526,3.341c-.626,3.471.837,5.527,2.845,6.631,8.953,4.934,20.614-2.549,26.852-8.231l9.105-9.349c-2.7-1.726-15.632-1.6-19.655-1.308-7.264.53-10.15,3.219-15.091,5.771.667-1.034.185-.315.941-1.148.122-.137.511-.522.637-.652l4.008-3.756a63.118,63.118,0,0,0,4.99-5.219l9.365-10.953c.919-2.326,2.971-5.027,4.419-7.631,17.729-31.838,19.147-69.34,2.478-101.923-3.093-6.045-11.743-19.6-16.488-24.266-2.03-2-1.537-.737-2.586-3.252,14.017,8.846,16.843-5.634,10.857-15.814-3.6-6.119-12.906-15.8-18.673-18.921-.367,17.443-1.5,21.288,7.02,33.894-3.7-1.76-7.657-7.938-12.294-10.18,1.43-5.123.3-7.4-2.674-10.553-8.9-9.416-20.01-8.568-33-6.6.867,2.756,7.227,6.968,9.646,9.561,4.245,4.556,12.154,10.09,19.492,9.9,5.134-.13,3.426-3.1,9.572,2.422,2.089,1.878,6.242,5.208,7.316,7.412-4.516-3.175-8.946-6.1-16.514-4.023a48.393,48.393,0,0,0-14.013,6.79c2.034,2.156,15.558,9.438,19.518,10.283,10.72,2.286,17.48-2.953,11.272-12.761,1.993,1.082,1.5,1.056,2.956,2.774.837.986,1.452,1.415,2.323,2.434,8.6,10.05,22.074,33.086,22.552,44.629,3.556,6.182,3.727,24.411,3.149,32.423-1.485,20.474-8.123,37.587-19.229,53.434-4.586,6.545-11.635,14.661-17.688,18.729.922-2.145,1.056-1.559,2.315-3.534,5.364-8.376.237-21.607-3.938-26.2l-3.415,4.471c-2.43,3.467-6.912,10.2-7.99,14.173-2.1,7.712-.245,19.051,12.754,11.268l-3.615,3.308a107.139,107.139,0,0,1-29.46,16.091c-5.475,1.959-36.643,11.394-40.828,11.376-4.482-.019-35.313-9.424-40.821-11.361a108.9,108.9,0,0,1-18-8.383c-1.286-.73-14.358-9.075-14.743-10.657-.056-.226-.219-.252-.315-.389,2.919,1.741,8.072,4.508,11.294,1.145,2.4-2.511,2.571-8.286,1.456-12.409-.948-3.515-8.061-15.406-11.42-18.629-4.271,4.83-9.4,18.1-3.675,26.526,1.352,1.993,1.141.978,2.048,3.2-5.245-3.516-10.372-9.368-14.347-14.254C194.15,426.5,188.92,384.266,204.526,348.7c4.334-9.879,13.424-24.289,20.992-31.771,1.23-1.219.311-.593,1.748-1.241.93-2.3,2.745-3.033,5-5.212,11.687-11.254,5.29-.2,20.051-6.312a38.858,38.858,0,0,0,11.161-8.042c3.267-3.571,6.686-5.727,9.724-9.3-10.62-4.86-40.4.089-35.75,16.91a38.093,38.093,0,0,0-6.4,4.96c-1.878,1.948-3.656,4.086-5.93,5.234,8.5-12.394,7.282-16.558,7.057-33.942-5.845,3.23-15.513,13.087-18.9,19.329-5.868,10.82-2.426,23.9,11.072,15.421-1.063,2.56-.552,1.234-2.589,3.26-4.282,4.264-12.365,17.529-14.387,19.77Z" transform="translate(-629.93 314.003)" fill="#2d002b" fill-rule="evenodd"/>
    <path id="Path_1647" data-name="Path 1647" d="M188.9,719.1l-2.982-3.049c-7.9-7.924-17.792-10.042-29.312-11.468,2.648,8.857,16.284,30.556,29.53,27.273,7.464-1.848,4.056-8.364,2.763-12.752Z" transform="translate(-606.655 46.686)" fill="#2d002b" fill-rule="evenodd"/>
    <path id="Path_1648" data-name="Path 1648" d="M752.261,719.087c-1.211,4.293-4.689,10.854,2.737,12.724,13.335,3.353,26.952-18.432,29.579-27.271-7.9,1.06-20.755,3.642-26.589,8.828Z" transform="translate(-980.48 46.711)" fill="#2d002b" fill-rule="evenodd"/>
    <path id="Path_1649" data-name="Path 1649" d="M817.553,610.4c-5.667,1.852-16.073,8.187-19.566,11.5-3.186,3.023-12.409,14.518-5.9,21.018,3.138,3.138,8.4,1.237,11.239-.686C812.094,636.286,816.331,621.209,817.553,610.4Z" transform="translate(-1005.303 105.979)" fill="#2d002b" fill-rule="evenodd"/>
    <path id="Path_1650" data-name="Path 1650" d="M160.083,642.936c6.7-6.42-2.915-18.217-5.9-21.055-3.393-3.219-13.909-9.646-19.558-11.491a69.746,69.746,0,0,0,7.2,23.855c2.019,3.882,11.635,15.047,18.269,8.69Z" transform="translate(-592.811 105.985)" fill="#2d002b" fill-rule="evenodd"/>
    <path id="Path_1651" data-name="Path 1651" d="M138.262,514.07c-.845,9.775-2.374,29.083,6.634,36.147,11.9,9.33,17.773-7.569,8.22-21.415-1.015-1.47-2.141-2.652-3.193-4-1.6-2.048-2.167-2.089-3.978-3.808C143.425,518.6,141.507,514.711,138.262,514.07Z" transform="translate(-594.689 166.626)" fill="#2d002b" fill-rule="evenodd"/>
    <path id="Path_1652" data-name="Path 1652" d="M808.375,422.714c-2.73,2.522-9.382,15.751-10.438,19.11-5.26,16.714,7.512,29.608,14.565,16.336,5.215-9.812.233-28.43-4.127-35.45Z" transform="translate(-1009.638 224.144)" fill="#2d002b" fill-rule="evenodd"/>
    <path id="Path_1653" data-name="Path 1653" d="M765.928,342.81c-2.178,3.5-5.471,19.162-5.012,24.1,2.378,25.7,26.226,19.133,16.354-5.6C774.667,354.782,769.643,346.67,765.928,342.81Z" transform="translate(-987.084 274.447)" fill="#2d002b" fill-rule="evenodd"/>
    <path id="Path_1654" data-name="Path 1654" d="M826.617,514.03c-2.73.563-12.613,11.646-14.617,14.414-3.5,4.837-7.79,17.091-2.545,22.67,3.8,4.034,12.8.592,15.98-9.809,2.83-9.264,1.955-17.629,1.178-27.275Z" transform="translate(-1016.127 166.651)" fill="#2d002b" fill-rule="evenodd"/>
    <path id="Path_1655" data-name="Path 1655" d="M203.719,377.294c1.608-7.412,3.86-8.375,2.286-17.9-.571-3.441-3.063-14.254-4.56-16.629-4.649,5.208-11.509,15.617-13.335,24.848-1.73,8.753,2.7,19.184,10.92,14.6C201.885,380.628,201.722,379.45,203.719,377.294Z" transform="translate(-626.252 274.472)" fill="#2d002b" fill-rule="evenodd"/>
    <path id="Path_1656" data-name="Path 1656" d="M272.46,846.664c6.334,2.667,20.366,13.587,33.005,10.364,14.865-3.792,7.864-18.443-10.59-17.721-3.589.141-8.95,1.7-12.1,2.793C280.48,842.893,274.131,844.811,272.46,846.664Z" transform="translate(-679.591 -38.119)" fill="#2d002b" fill-rule="evenodd"/>
    <path id="Path_1657" data-name="Path 1657" d="M656.88,846.746c-1.407-1.563-8.553-3.808-10.531-4.467-28.4-9.469-39.313,11.16-21.792,15.18,10.009,2.3,25.289-5.453,32.32-10.712Z" transform="translate(-895.941 -38.457)" fill="#2d002b" fill-rule="evenodd"/>
    <path id="Path_1658" data-name="Path 1658" d="M159.707,422.32c-1.915,7.709-5.375,13.306-6,23.219-.47,7.456,2.838,19.44,10.957,17.632,6.749-1.5,8.223-13.876,5.838-21.6-1.448-4.686-4.7-10.339-7.146-14.428-1.341-2.249-1.715-3.4-3.649-4.823Z" transform="translate(-604.799 224.389)" fill="#2d002b" fill-rule="evenodd"/>
    <path id="Path_1659" data-name="Path 1659" d="M264.838,420.925c-4.308-2.763-16.006-4.315-21.4-2.167-4.264,1.7-12.78,8.609-9.405,15.517,1.393,2.852,5.138,3.8,8.909,3.245C251.354,436.286,262.563,424.633,264.838,420.925Z" transform="translate(-654.914 227.266)" fill="#2d002b" fill-rule="evenodd"/>
    <path id="Path_1660" data-name="Path 1660" d="M619.639,757.37c-2.815,1.5-12.739,10.184-14.236,11.991-13.757,16.6,4.712,27.242,14.121,9.928,3.456-6.36,1-15.176.115-21.914Z" transform="translate(-886.105 13.451)" fill="#2d002b" fill-rule="evenodd"/>
    <path id="Path_1661" data-name="Path 1661" d="M680.834,421.058c1.786,2.823,9.324,9.672,12.706,12.506,3.919,3.286,14.721,7.179,18.029.792,3.459-6.678-4.953-13.587-8.927-15.295-5.227-2.245-17.555-.789-21.811,2Z" transform="translate(-936.69 227.133)" fill="#2d002b" fill-rule="evenodd"/>
    <path id="Path_1662" data-name="Path 1662" d="M344.672,757.35c-2.312,5.531-3.012,16.751-.267,21.907,1.8,3.382,9.594,12.747,16.462,7.431,5.808-4.5.367-14.2-2.626-17.677l-6.964-6.2c-1.945-1.523-5-3.916-6.6-5.453Z" transform="translate(-723.765 13.463)" fill="#2d002b" fill-rule="evenodd"/>
    <path id="Path_1663" data-name="Path 1663" d="M224.043,537.2c-6.453.933-14.639,4.086-18.081,7.49-9.727,9.62-4.512,25.941,6.394,18.966C219.535,559.063,222.535,545.909,224.043,537.2Z" transform="translate(-634.497 152.064)" fill="#2d002b" fill-rule="evenodd"/>
    <path id="Path_1664" data-name="Path 1664" d="M279.226,368.762c-1.782,2.56-4.953,6.627-1.782,10.6,2.186,2.741,7.572,3.519,12.135,2.7,4.13-.737,18.092-8.227,20-10.42-12.858-8.483-19.533-9.905-30.353-2.886Z" transform="translate(-681.878 260.93)" fill="#2d002b" fill-rule="evenodd"/>
    <path id="Path_1665" data-name="Path 1665" d="M743.642,490.342c-1.34-1.778-1.667-3.723-3.578-6.016a14.186,14.186,0,0,0-5.693-4.53c-5.437-2.319-12.339-2.386-18.61-2.193,2.908,7.534,12.15,24.13,22.448,23.041C743.528,500.081,743.683,495.521,743.642,490.342Z" transform="translate(-958.681 189.628)" fill="#2d002b" fill-rule="evenodd"/>
    <path id="Path_1666" data-name="Path 1666" d="M235.563,477.471c-6.464-1.841-17.08.145-21.3,3.386-3.06,2.352-10.52,11.691-4.871,17.484,5.549,5.69,14.565-2.311,16.647-5.108,3.7-4.975,6.23-10.58,9.52-15.761Z" transform="translate(-638.594 190.111)" fill="#2d002b" fill-rule="evenodd"/>
    <path id="Path_1667" data-name="Path 1667" d="M253.416,659.51c-2.9,2.993-8.716,9.353-10.613,15.035-2.382,7.134,1.4,15.539,6.142,17.725,7.709,3.552,11.113-6.62,10.505-13.6-.2-2.341-3.953-17.206-6.031-19.165Z" transform="translate(-660.458 75.061)" fill="#2d002b" fill-rule="evenodd"/>
    <path id="Path_1668" data-name="Path 1668" d="M230.252,599.13c-5.23,1.944-12.043,7.653-14.491,10.946-10.157,13.661,6.523,32.1,13.695,11.865C231.563,615.988,230.389,605.787,230.252,599.13Z" transform="translate(-641.884 113.074)" fill="#2d002b" fill-rule="evenodd"/>
    <path id="Path_1669" data-name="Path 1669" d="M716.225,659.5c-1.863,1.8-2.76,7.1-3.626,9.638-.945,2.767-2.289,7.042-2.437,10.135-.333,6.793,2.967,16.443,10.546,12.994,5.03-2.286,8.516-10.972,5.96-18.191-1.826-5.16-7.875-12.021-10.442-14.58Z" transform="translate(-955.142 75.067)" fill="#2d002b" fill-rule="evenodd"/>
    <path id="Path_1670" data-name="Path 1670" d="M736.42,537.14c-.022,2.775,4,17.047,5.29,19.444,4.034,7.523,11.872,11.16,15.606,6.741,1.985-2.348,2.375-6.953,1.5-10.679C756.464,542.666,746.01,539.059,736.42,537.14Z" transform="translate(-971.688 152.102)" fill="#2d002b" fill-rule="evenodd"/>
    <path id="Path_1671" data-name="Path 1671" d="M737.99,610.7c.037,7.146.44,13.188,4.956,17.681,4.882,4.852,10.472,1.892,12.28-3.912,3.834-12.309-8.55-22.348-16.862-25.289l-.374,11.52Z" transform="translate(-972.676 113.043)" fill="#2d002b" fill-rule="evenodd"/>
    <text id="COURT_OF_APPEAL_REPORTS_NIGERIA" data-name="COURT OF APPEAL
REPORTS NIGERIA" transform="translate(-77.937 680.093)" stroke="#000" stroke-width="4" font-size="103" font-family="SegoeUI-Bold, Segoe UI" font-weight="700"><tspan x="0" y="0">COURT OF APPEAL</tspan><tspan x="0" y="97">REPORTS NIGERIA</tspan></text>
  </g>
</svg>
