<svg xmlns="http://www.w3.org/2000/svg" width="345.874" height="291.853" viewBox="0 0 63.221 80.923">
  <g id="noun_report_362639" transform="translate(-3.5)">
    <g id="Group_4181" data-name="Group 4181" transform="translate(3.5)">
      <path id="Path_1688" data-name="Path 1688" d="M40.152,13,28,25.34l-7.394-7.511L8.3,28.931,10,30.807l10.51-9.481L28,28.943,41.924,14.8l2.789,2.832L47.24,8.05l-9.428,2.569Z" transform="translate(3.84 12.307)" fill="#ce6d0d"/>
      <path id="Path_1689" data-name="Path 1689" d="M3.5,0V80.923H66.721V12.644L55.341,0ZM55.394,3.839,63.461,12.8H55.394ZM6.029,78.394V2.529H52.866v12.8H64.192V78.394Z" transform="translate(-3.5)" fill="#ce6d0d"/>
      <rect id="Rectangle_1747" data-name="Rectangle 1747" width="37.933" height="2.529" transform="translate(12.644 55.541)" fill="#ce6d0d"/>
      <rect id="Rectangle_1748" data-name="Rectangle 1748" width="37.933" height="2.529" transform="translate(12.644 62.005)" fill="#ce6d0d"/>
      <rect id="Rectangle_1749" data-name="Rectangle 1749" width="37.933" height="2.529" transform="translate(12.644 68.466)" fill="#ce6d0d"/>
    </g>
  </g>
</svg>
